<!--?xml version="1.0" standalone="no"?-->
              <svg id="sw-js-blob-svg" viewBox="0 0 100 100" xmlns="http://www.w3.org/2000/svg" version="1.1">
                    <defs> 
                        <linearGradient id="sw-gradient" x1="0" x2="1" y1="1" y2="0">
                            <stop id="stop1" stop-color="rgba(55, 248, 225.118, 0.74)" offset="0%"></stop>
                            <stop id="stop2" stop-color="rgba(69.513, 59.288, 42.409, 0)" offset="100%"></stop>
                        </linearGradient>
                    </defs>
                <path fill="url(#sw-gradient)" d="M22,-28.6C28.8,-25.2,34.9,-19.3,38.1,-11.9C41.2,-4.4,41.3,4.5,37.6,11.1C33.9,17.7,26.5,21.9,19.6,25.4C12.7,28.9,6.3,31.6,-1,33.1C-8.4,34.5,-16.8,34.6,-21.4,30.4C-26,26.2,-26.8,17.6,-29.5,9.5C-32.2,1.5,-36.8,-6,-36.1,-12.8C-35.4,-19.7,-29.4,-26,-22.5,-29.3C-15.6,-32.6,-7.8,-32.9,-0.1,-32.7C7.6,-32.5,15.1,-31.9,22,-28.6Z" width="100%" height="100%" transform="translate(50 50)" stroke-width="0" style="transition: 0.3s;" stroke="url(#sw-gradient)"></path>
              </svg>