<?xml version="1.0" encoding="UTF-8"?>
<svg xmlns="http://www.w3.org/2000/svg" xmlns:xlink="http://www.w3.org/1999/xlink" width="4000" height="2500" viewBox="0 0 4000 2500">
<defs>
<linearGradient id="linear-pattern-0" gradientUnits="userSpaceOnUse" x1="0.000000000000000111" y1="0" x2="1" y2="0" gradientTransform="matrix(3250, -3250, 3250, 3250, 375, 2875)">
<stop offset="0" stop-color="rgb(85.496521%, 85.667419%, 85.554504%)" stop-opacity="1"/>
<stop offset="0.015625" stop-color="rgb(85.68573%, 85.719299%, 85.559082%)" stop-opacity="1"/>
<stop offset="0.03125" stop-color="rgb(86.068726%, 86.003113%, 85.809326%)" stop-opacity="1"/>
<stop offset="0.0625" stop-color="rgb(86.457825%, 86.468506%, 86.303711%)" stop-opacity="1"/>
<stop offset="0.078125" stop-color="rgb(86.839294%, 86.764526%, 86.57074%)" stop-opacity="1"/>
<stop offset="0.09375" stop-color="rgb(87.049866%, 87.002563%, 86.820984%)" stop-opacity="1"/>
<stop offset="0.109375" stop-color="rgb(87.243652%, 87.242126%, 87.078857%)" stop-opacity="1"/>
<stop offset="0.125" stop-color="rgb(87.442017%, 87.478638%, 87.330627%)" stop-opacity="1"/>
<stop offset="0.140625" stop-color="rgb(87.637329%, 87.718201%, 87.588501%)" stop-opacity="1"/>
<stop offset="0.15625" stop-color="rgb(87.998962%, 88.002014%, 87.846375%)" stop-opacity="1"/>
<stop offset="0.171875" stop-color="rgb(88.232422%, 88.40332%, 88.171387%)" stop-opacity="1"/>
<stop offset="0.1875" stop-color="rgb(88.42926%, 88.674927%, 88.439941%)" stop-opacity="1"/>
<stop offset="0.203125" stop-color="rgb(88.62915%, 88.91449%, 88.699341%)" stop-opacity="1"/>
<stop offset="0.21875" stop-color="rgb(88.825989%, 89.157104%, 88.957214%)" stop-opacity="1"/>
<stop offset="0.234375" stop-color="rgb(89.167786%, 89.299011%, 89.163208%)" stop-opacity="1"/>
<stop offset="0.25" stop-color="rgb(89.407349%, 89.506531%, 89.268494%)" stop-opacity="1"/>
<stop offset="0.265625" stop-color="rgb(89.604187%, 89.749146%, 89.486694%)" stop-opacity="1"/>
<stop offset="0.28125" stop-color="rgb(89.944458%, 90.031433%, 89.753723%)" stop-opacity="1"/>
<stop offset="0.296875" stop-color="rgb(90.197754%, 90.292358%, 90.0177%)" stop-opacity="1"/>
<stop offset="0.3125" stop-color="rgb(90.394592%, 90.534973%, 90.281677%)" stop-opacity="1"/>
<stop offset="0.328125" stop-color="rgb(90.596008%, 90.782166%, 90.545654%)" stop-opacity="1"/>
<stop offset="0.34375" stop-color="rgb(90.792847%, 91.02478%, 90.811157%)" stop-opacity="1"/>
<stop offset="0.359375" stop-color="rgb(91.120911%, 91.31012%, 91.079712%)" stop-opacity="1"/>
<stop offset="0.375" stop-color="rgb(91.389465%, 91.575623%, 91.349792%)" stop-opacity="1"/>
<stop offset="0.390625" stop-color="rgb(91.58783%, 91.824341%, 91.616821%)" stop-opacity="1"/>
<stop offset="0.40625" stop-color="rgb(91.899109%, 91.992188%, 91.841125%)" stop-opacity="1"/>
<stop offset="0.421875" stop-color="rgb(92.173767%, 92.189026%, 92.079163%)" stop-opacity="1"/>
<stop offset="0.4375" stop-color="rgb(92.372131%, 92.43927%, 92.350769%)" stop-opacity="1"/>
<stop offset="0.453125" stop-color="rgb(92.575073%, 92.686462%, 92.617798%)" stop-opacity="1"/>
<stop offset="0.46875" stop-color="rgb(92.774963%, 92.938232%, 92.892456%)" stop-opacity="1"/>
<stop offset="0.484375" stop-color="rgb(92.979431%, 93.186951%, 93.161011%)" stop-opacity="1"/>
<stop offset="0.5" stop-color="rgb(93.177795%, 93.438721%, 93.435669%)" stop-opacity="1"/>
<stop offset="0.515625" stop-color="rgb(93.476868%, 93.717957%, 93.710327%)" stop-opacity="1"/>
<stop offset="0.53125" stop-color="rgb(93.870544%, 94.029236%, 93.995667%)" stop-opacity="1"/>
<stop offset="0.546875" stop-color="rgb(94.17572%, 94.311523%, 94.271851%)" stop-opacity="1"/>
<stop offset="0.5625" stop-color="rgb(94.37561%, 94.566345%, 94.551086%)" stop-opacity="1"/>
<stop offset="0.578125" stop-color="rgb(94.664001%, 94.844055%, 94.828796%)" stop-opacity="1"/>
<stop offset="0.59375" stop-color="rgb(94.978333%, 95.133972%, 95.114136%)" stop-opacity="1"/>
<stop offset="0.609375" stop-color="rgb(95.179749%, 95.385742%, 95.388794%)" stop-opacity="1"/>
<stop offset="0.625" stop-color="rgb(95.46051%, 95.66803%, 95.675659%)" stop-opacity="1"/>
<stop offset="0.640625" stop-color="rgb(95.779419%, 95.887756%, 95.927429%)" stop-opacity="1"/>
<stop offset="0.65625" stop-color="rgb(95.973206%, 96.02356%, 96.156311%)" stop-opacity="1"/>
<stop offset="0.6875" stop-color="rgb(96.246338%, 96.362305%, 96.463013%)" stop-opacity="1"/>
<stop offset="0.71875" stop-color="rgb(96.646118%, 96.809387%, 96.868896%)" stop-opacity="1"/>
<stop offset="0.734375" stop-color="rgb(96.986389%, 97.111511%, 97.291565%)" stop-opacity="1"/>
<stop offset="0.75" stop-color="rgb(97.189331%, 97.369385%, 97.525024%)" stop-opacity="1"/>
<stop offset="0.765625" stop-color="rgb(97.396851%, 97.621155%, 97.666931%)" stop-opacity="1"/>
<stop offset="0.78125" stop-color="rgb(97.599792%, 97.88208%, 97.955322%)" stop-opacity="1"/>
<stop offset="0.8125" stop-color="rgb(97.845459%, 98.150635%, 98.236084%)" stop-opacity="1"/>
<stop offset="0.84375" stop-color="rgb(98.23761%, 98.472595%, 98.536682%)" stop-opacity="1"/>
<stop offset="0.859375" stop-color="rgb(98.603821%, 98.780823%, 98.826599%)" stop-opacity="1"/>
<stop offset="0.875" stop-color="rgb(98.808289%, 99.0448%, 99.119568%)" stop-opacity="1"/>
<stop offset="0.90625" stop-color="rgb(99.03717%, 99.308777%, 99.403381%)" stop-opacity="1"/>
<stop offset="0.9375" stop-color="rgb(99.430847%, 99.635315%, 99.708557%)" stop-opacity="1"/>
<stop offset="1" stop-color="rgb(99.816895%, 99.940491%, 99.987793%)" stop-opacity="1"/>
</linearGradient>
</defs>
<path fill-rule="nonzero" fill="none" d="M -1250 1250 L 2000 4500 L 5250 1250 L 2000 -2000 Z M -1250 1250 "/>
<path fill-rule="nonzero" fill="rgb(38.085938%, 80.08728%, 96.116638%)" fill-opacity="1" d="M 742.84375 2474.167969 C 559.78125 2474.230469 323.039062 2019.96875 93.738281 1580.039062 C -110.757812 1187.710938 -303.929688 817.109375 -427.214844 842.960938 C -496.839844 857.539062 -539.644531 996.988281 -558.074219 1269.261719 L -561.8125 1269.011719 C -543.257812 994.820312 -499.480469 854.261719 -427.984375 839.28125 C -301.925781 812.878906 -108.109375 1184.679688 97.066406 1578.308594 C 214.65625 1803.921875 336.253906 2037.199219 451.566406 2208.75 C 581.625 2402.230469 684.605469 2486.96875 766.378906 2467.71875 C 931.511719 2428.910156 1020.140625 1968.171875 1037.308594 1059.140625 C 1053.480469 203.679688 1137.25 -227.238281 1293.390625 -258.25 C 1494.660156 -298.128906 1777.019531 349.800781 2003.910156 870.488281 C 2159.230469 1226.921875 2293.480469 1534.761719 2355.921875 1518.621094 C 2403.929688 1506.269531 2408.488281 1298.800781 2369.871094 884.371094 C 2343.550781 601.941406 2347.800781 378.050781 2382.488281 218.898438 C 2414.148438 73.648438 2472.359375 -22.710938 2555.480469 -67.511719 C 2671.109375 -129.828125 2836.800781 -96.609375 3062.019531 34.039062 C 3258.199219 147.839844 3474.699219 321.148438 3665.699219 474.058594 C 3919.320312 677.078125 4142.410156 855.648438 4260.199219 855.671875 C 4275.789062 855.671875 4289.519531 852.550781 4301.25 845.941406 C 4345.089844 821.230469 4358.519531 749.109375 4342.28125 625.46875 L 4346 624.980469 C 4362.460938 750.308594 4348.421875 823.660156 4303.089844 849.210938 C 4290.929688 856.058594 4276.699219 859.289062 4260.601562 859.300781 C 4140.949219 859.320312 3917.429688 680.378906 3663.359375 476.988281 C 3472.460938 324.160156 3256.070312 150.949219 3060.140625 37.289062 C 2836.140625 -92.648438 2671.648438 -125.859375 2557.25 -64.210938 C 2475.148438 -19.949219 2417.578125 75.570312 2386.160156 219.699219 C 2351.539062 378.46875 2347.320312 601.980469 2373.601562 884.03125 C 2412.96875 1306.378906 2407.648438 1509.179688 2356.851562 1522.261719 C 2355.050781 1522.71875 2353.199219 1522.949219 2351.308594 1522.949219 C 2284.128906 1522.960938 2158.449219 1234.519531 2000.46875 871.988281 C 1774.121094 352.539062 1492.460938 -294.019531 1294.121094 -254.570312 C 1222.191406 -240.289062 1164.738281 -134.25 1123.371094 60.601562 C 1077.171875 278.21875 1049.480469 614.199219 1041.058594 1059.210938 C 1023.851562 1970.199219 934.28125 2432.121094 767.234375 2471.371094 C 759.226562 2473.25 751.074219 2474.167969 742.84375 2474.167969 "/>
<path fill-rule="nonzero" fill="rgb(42.062378%, 50.427246%, 78.808594%)" fill-opacity="1" d="M 715.917969 2483.480469 C 529.378906 2483.519531 290.566406 2039.578125 59.25 1609.621094 C -147.4375 1225.429688 -342.675781 862.578125 -468.566406 889.269531 C -539.464844 904.308594 -583.734375 1041.308594 -603.894531 1308.101562 L -607.636719 1307.808594 C -587.328125 1039.140625 -542.09375 901.039062 -469.34375 885.601562 C -340.707031 858.359375 -144.820312 1222.378906 62.550781 1607.839844 C 181.46875 1828.878906 304.4375 2057.449219 421.285156 2225.210938 C 553.082031 2414.429688 657.769531 2496.667969 741.328125 2476.769531 C 909.460938 2436.628906 1001.96875 1984.210938 1024.148438 1093.640625 C 1045.039062 255.109375 1132.519531 -168.050781 1291.570312 -200.03125 C 1497.078125 -241.359375 1781.839844 393.5 2010.710938 903.589844 C 2167.371094 1252.761719 2302.488281 1554.238281 2366.539062 1537.589844 C 2415.421875 1524.761719 2421.101562 1321.230469 2383.898438 915.339844 C 2358.769531 641.078125 2363.898438 422.941406 2399.148438 266.988281 C 2431.359375 124.5 2489.898438 28.988281 2573.148438 -16.871094 C 2690.929688 -81.75 2860.089844 -51.570312 3090.28125 75.441406 C 3290.769531 186.070312 3512.058594 356.070312 3707.308594 506.070312 C 3964.359375 703.539062 4190.660156 877.378906 4310.988281 877.390625 C 4327.800781 877.390625 4342.53125 874.011719 4355 866.808594 C 4398.699219 841.609375 4412.289062 771.058594 4396.550781 651.148438 L 4400.269531 650.660156 C 4416.230469 772.25 4402.039062 844.011719 4356.871094 870.058594 C 4343.960938 877.511719 4328.71875 881.019531 4311.390625 881.019531 C 4189.230469 881.03125 3962.511719 706.839844 3705.019531 509.039062 C 3509.878906 359.128906 3288.710938 189.21875 3088.46875 78.730469 C 2859.5 -47.609375 2691.519531 -77.800781 2574.949219 -13.578125 C 2492.691406 31.738281 2434.769531 126.410156 2402.808594 267.820312 C 2367.640625 423.378906 2362.539062 641.128906 2387.640625 915 C 2425.550781 1328.679688 2419.148438 1527.660156 2367.488281 1541.210938 C 2365.558594 1541.71875 2363.558594 1541.96875 2361.511719 1541.96875 C 2293.03125 1541.980469 2166.398438 1259.730469 2007.289062 905.128906 C 1778.960938 396.25 1494.839844 -237.078125 1292.308594 -196.359375 C 1218.988281 -181.621094 1159.949219 -77.089844 1116.828125 114.320312 C 1068.691406 328.050781 1038.769531 657.578125 1027.898438 1093.730469 C 1005.671875 1986.238281 912.21875 2439.832031 742.199219 2480.417969 C 733.570312 2482.480469 724.792969 2483.480469 715.917969 2483.480469 "/>
<path fill-rule="nonzero" fill="rgb(44.140625%, 82.017517%, 96.138%)" fill-opacity="1" d="M 688.375 2492.789062 C 498.3125 2492.808594 257.359375 2059.011719 23.953125 1638.839844 C -185.027344 1262.628906 -382.46875 907.289062 -510.980469 934.929688 C -583.167969 950.441406 -628.910156 1085.050781 -650.8125 1346.441406 L -654.546875 1346.128906 C -632.492188 1082.871094 -585.785156 947.171875 -511.769531 931.261719 C -380.5 903.011719 -182.4375 1259.558594 27.230469 1637.019531 C 147.535156 1853.578125 271.929688 2077.53125 390.375 2241.570312 C 523.976562 2426.609375 630.4375 2506.511719 715.808594 2485.78125 C 886.960938 2444.269531 983.371094 2000.011719 1010.539062 1127.601562 C 1023.871094 699.878906 1056.050781 376.429688 1106.210938 166.25 C 1151.449219 -23.339844 1213.070312 -127.351562 1289.351562 -142.890625 C 1499 -185.589844 1786.488281 436.339844 2017.449219 936.058594 C 2175.558594 1278.140625 2312.148438 1573.5 2377.269531 1556.148438 C 2427.019531 1542.839844 2433.808594 1343.160156 2398.011719 945.679688 C 2374.050781 679.460938 2380.03125 467.011719 2415.800781 314.21875 C 2448.519531 174.460938 2507.339844 79.808594 2590.640625 32.921875 C 2710.609375 -34.621094 2883.339844 -7.480469 3118.671875 115.921875 C 3323.628906 223.390625 3549.910156 390.140625 3749.558594 537.261719 C 4010.121094 729.261719 4239.710938 898.441406 4362.628906 898.449219 C 4380.738281 898.449219 4396.53125 894.78125 4409.769531 886.96875 C 4453.289062 861.28125 4467.019531 792.300781 4451.761719 676.070312 L 4455.480469 675.589844 C 4470.960938 793.46875 4456.628906 863.671875 4411.679688 890.199219 C 4397.980469 898.28125 4381.671875 902.070312 4363.011719 902.070312 C 4238.308594 902.089844 4008.308594 732.589844 3747.339844 540.28125 C 3547.800781 393.230469 3321.640625 226.578125 3116.921875 119.238281 C 2882.820312 -3.519531 2711.261719 -30.691406 2592.480469 36.191406 C 2510.140625 82.539062 2451.921875 176.378906 2419.449219 315.078125 C 2383.78125 467.480469 2377.820312 679.53125 2401.75 945.339844 C 2438.238281 1350.480469 2430.769531 1545.71875 2378.25 1559.769531 C 2376.160156 1560.328125 2374 1560.609375 2371.789062 1560.609375 C 2301.988281 1560.628906 2174.351562 1284.460938 2014.050781 937.640625 C 1783.640625 439.109375 1496.941406 -181.25 1290.101562 -139.210938 C 1215.371094 -123.988281 1154.730469 -20.929688 1109.859375 167.121094 C 1059.761719 377.058594 1027.609375 700.25 1014.289062 1127.71875 C 987.058594 2002.039062 889.710938 2447.460938 716.691406 2489.429688 C 707.394531 2491.691406 697.941406 2492.789062 688.375 2492.789062 "/>
<path fill-rule="nonzero" fill="rgb(57.106018%, 86.14502%, 96.101379%)" fill-opacity="1" d="M 660.207031 2502.070312 C 466.5625 2502.101562 223.394531 2078.269531 -12.179688 1667.710938 C -223.550781 1299.328125 -423.144531 951.421875 -554.496094 979.96875 C -627.984375 995.980469 -675.199219 1128.238281 -698.839844 1384.320312 L -702.574219 1383.980469 C -678.761719 1126.058594 -630.585938 992.710938 -555.292969 976.308594 C -421.308594 947.160156 -221.007812 1296.238281 -8.929688 1665.839844 C 112.820312 1878.03125 238.71875 2097.441406 358.824219 2257.828125 C 494.300781 2438.761719 602.585938 2516.230469 689.820312 2494.75 C 864.015625 2451.820312 964.328125 2015.539062 996.484375 1160.988281 C 1012.261719 741.800781 1046.691406 424.558594 1098.820312 218.078125 C 1145.839844 31.800781 1209.070312 -70.769531 1286.761719 -86.800781 C 1500.78125 -131 1791 478.289062 2024.171875 967.839844 C 2183.789062 1302.96875 2321.691406 1592.441406 2388.160156 1574.261719 C 2438.789062 1560.460938 2446.679688 1364.539062 2412.289062 975.328125 C 2389.46875 717.058594 2396.269531 510.230469 2432.488281 360.589844 C 2465.660156 223.53125 2524.710938 129.75 2607.96875 81.871094 C 2730.171875 11.589844 2906.558594 35.671875 3147.21875 155.46875 C 3356.808594 259.800781 3588.289062 423.339844 3792.511719 567.640625 C 4056.628906 754.238281 4289.578125 918.820312 4415.160156 918.839844 C 4434.660156 918.839844 4451.558594 914.871094 4465.601562 906.390625 C 4508.878906 880.269531 4522.730469 812.839844 4507.941406 700.25 L 4511.671875 699.769531 C 4526.660156 813.988281 4512.230469 882.628906 4467.539062 909.609375 C 4453.039062 918.359375 4435.589844 922.460938 4415.519531 922.460938 C 4288.21875 922.46875 4054.871094 757.589844 3790.351562 570.699219 C 3586.230469 426.480469 3354.878906 263.03125 3145.550781 158.820312 C 2906.078125 39.628906 2730.871094 15.53125 2609.839844 85.121094 C 2527.5 132.46875 2469.058594 225.449219 2436.128906 361.46875 C 2400.011719 510.71875 2393.25 717.140625 2416.019531 975 C 2451.089844 1371.738281 2442.550781 1563.320312 2389.148438 1577.878906 C 2386.898438 1578.5 2384.570312 1578.800781 2382.191406 1578.800781 C 2311.019531 1578.828125 2182.328125 1308.621094 2020.78125 969.460938 C 1788.179688 481.089844 1498.75 -126.609375 1287.511719 -83.128906 C 1211.359375 -67.410156 1149.089844 34.230469 1102.449219 218.988281 C 1050.390625 425.21875 1016 742.210938 1000.230469 1161.140625 C 968 2017.578125 866.757812 2455 690.71875 2498.390625 C 680.699219 2500.859375 670.511719 2502.058594 660.207031 2502.070312 "/>
<path fill-rule="nonzero" fill="rgb(45.303345%, 56.570435%, 82.173157%)" fill-opacity="1" d="M 631.386719 2511.289062 C 434.101562 2511.332031 188.644531 2097.300781 -49.1875 1696.191406 C -263.058594 1335.488281 -465.078125 994.789062 -599.144531 1024.371094 C -673.941406 1040.878906 -722.636719 1170.851562 -748.019531 1421.710938 L -751.75 1421.320312 C -726.183594 1168.648438 -676.53125 1037.609375 -599.953125 1020.710938 C -463.207031 990.570312 -260.539062 1332.378906 -45.960938 1694.28125 C 77.308594 1902.171875 204.769531 2117.148438 326.597656 2273.949219 C 464.03125 2450.839844 574.195312 2525.941406 663.355469 2503.628906 C 840.617188 2459.230469 944.84375 2030.78125 981.984375 1193.800781 C 1000.21875 783 1036.890625 471.851562 1091 268.988281 C 1139.808594 85.960938 1204.671875 -15.21875 1283.769531 -31.75 C 1502.320312 -77.441406 1795.378906 519.421875 2030.871094 999 C 2192.101562 1327.328125 2331.449219 1610.78125 2399.210938 1591.980469 C 2450.71875 1577.648438 2459.710938 1385.429688 2426.699219 1004.339844 C 2405.011719 753.921875 2412.570312 552.648438 2449.191406 406.121094 C 2482.78125 271.75 2541.96875 178.859375 2625.148438 130.011719 C 2749.558594 56.949219 2929.710938 77.921875 3175.890625 194.128906 C 3390.28125 295.328125 3627.140625 455.71875 3836.128906 597.21875 C 4103.871094 778.511719 4340.25 938.558594 4468.53125 938.558594 C 4489.53125 938.558594 4507.621094 934.28125 4522.488281 925.101562 C 4565.46875 898.558594 4579.410156 832.671875 4565.101562 723.660156 L 4568.820312 723.171875 C 4583.339844 833.800781 4568.828125 900.898438 4524.449219 928.289062 C 4509.109375 937.761719 4490.460938 942.179688 4468.890625 942.191406 C 4338.921875 942.210938 4102.160156 781.878906 3834.019531 600.320312 C 3625.160156 458.898438 3388.421875 298.601562 3174.289062 197.519531 C 2929.320312 81.890625 2750.308594 60.851562 2627.039062 133.25 C 2544.769531 181.558594 2486.160156 273.679688 2452.828125 407.03125 C 2416.308594 553.160156 2408.78125 754.011719 2430.441406 1004.019531 C 2464.089844 1392.519531 2454.488281 1580.488281 2400.210938 1595.589844 C 2397.78125 1596.269531 2395.269531 1596.609375 2392.691406 1596.609375 C 2320.148438 1596.628906 2190.351562 1332.289062 2027.511719 1000.648438 C 1792.589844 522.238281 1500.238281 -73.128906 1284.539062 -28.078125 C 1206.941406 -11.859375 1143.039062 88.410156 1094.621094 269.960938 C 1040.589844 472.550781 1003.949219 783.429688 985.730469 1193.96875 C 948.507812 2032.828125 843.355469 2462.410156 664.265625 2507.269531 C 653.476562 2509.96875 642.492188 2511.289062 631.386719 2511.289062 "/>
<path fill-rule="nonzero" fill="rgb(68.444824%, 70.050049%, 85.336304%)" fill-opacity="1" d="M 601.90625 2520.5 C 400.917969 2520.539062 153.074219 2116.140625 -87.082031 1724.339844 C -303.554688 1371.171875 -508.039062 1037.589844 -644.945312 1068.199219 C -721.058594 1085.21875 -771.234375 1212.941406 -798.355469 1458.660156 L -802.082031 1458.25 C -774.765625 1210.738281 -723.636719 1081.949219 -645.765625 1064.539062 C -506.246094 1033.308594 -301.078125 1368.03125 -83.882812 1722.378906 C 40.972656 1926.078125 170.074219 2136.710938 293.699219 2289.980469 C 433.167969 2462.898438 545.269531 2535.660156 636.410156 2512.46875 C 816.769531 2466.558594 924.914062 2045.769531 967.023438 1226.078125 C 987.703125 823.519531 1026.628906 518.351562 1082.71875 319.050781 C 1133.328125 139.199219 1199.828125 39.359375 1280.359375 22.300781 C 1503.488281 -24.910156 1799.589844 559.738281 2037.511719 1029.550781 C 2200.398438 1351.210938 2341.078125 1628.890625 2410.359375 1609.320312 C 2462.761719 1594.441406 2472.839844 1405.859375 2441.191406 1032.78125 C 2420.621094 790.070312 2428.929688 594.28125 2465.910156 450.839844 C 2499.851562 319.148438 2559.148438 227.148438 2642.148438 177.390625 C 2768.820312 101.460938 2952.851562 119.308594 3204.761719 231.949219 C 3424.109375 330.03125 3666.570312 487.289062 3880.480469 626.03125 C 4151.898438 802.078125 4391.769531 957.640625 4522.820312 957.648438 C 4545.398438 957.660156 4564.738281 953.039062 4580.460938 943.109375 C 4623.109375 916.191406 4637.109375 851.828125 4623.261719 746.351562 L 4626.980469 745.859375 C 4641.039062 852.949219 4626.480469 918.5 4582.460938 946.28125 C 4566.25 956.511719 4546.339844 961.269531 4523.160156 961.269531 C 4390.460938 961.289062 4150.238281 805.46875 3878.441406 629.179688 C 3664.640625 490.511719 3422.308594 333.328125 3203.21875 235.371094 C 2952.519531 123.269531 2769.621094 105.359375 2644.078125 180.609375 C 2561.949219 229.839844 2503.230469 321.070312 2469.53125 451.78125 C 2432.660156 594.808594 2424.390625 790.171875 2444.941406 1032.460938 C 2477.199219 1412.820312 2466.539062 1597.269531 2411.390625 1612.929688 C 2408.769531 1613.671875 2406.058594 1614.039062 2403.269531 1614.039062 C 2329.308594 1614.050781 2198.371094 1355.480469 2034.160156 1031.238281 C 1796.820312 562.578125 1501.46875 -20.730469 1281.140625 25.96875 C 1202.078125 42.710938 1136.53125 141.660156 1086.328125 320.058594 C 1030.320312 519.101562 991.4375 823.988281 970.769531 1226.269531 C 928.5625 2047.820312 819.496094 2469.730469 637.335938 2516.109375 C 625.710938 2519.058594 613.878906 2520.5 601.90625 2520.5 "/>
<path fill-rule="nonzero" fill="rgb(40.010071%, 48.623657%, 77.827454%)" fill-opacity="1" d="M 571.75 2529.679688 C 367.011719 2529.679688 116.695312 2134.789062 -125.851562 1752.140625 C -345.042969 1406.351562 -552.140625 1079.691406 -691.917969 1111.421875 C -769.355469 1128.96875 -821.027344 1254.488281 -849.886719 1495.171875 L -853.609375 1494.71875 C -824.539062 1252.28125 -771.917969 1125.699219 -692.746094 1107.769531 C -550.40625 1075.441406 -342.601562 1403.191406 -122.6875 1750.128906 C 3.824219 1949.71875 134.644531 2156.089844 260.132812 2305.898438 C 401.714844 2474.898438 515.855469 2545.351562 608.988281 2521.238281 C 792.457031 2473.769531 904.527344 2060.5 951.601562 1257.808594 C 974.738281 863.359375 1015.921875 564.058594 1074 368.230469 C 1126.429688 191.488281 1194.578125 92.949219 1276.570312 75.351562 C 1504.359375 26.46875 1803.671875 599.238281 2044.160156 1059.488281 C 2208.808594 1374.609375 2350.890625 1646.839844 2421.710938 1626.261719 C 2474.980469 1610.820312 2486.160156 1425.78125 2455.859375 1060.570312 C 2436.371094 825.460938 2445.390625 635.089844 2482.660156 494.71875 C 2516.921875 365.691406 2576.261719 274.589844 2659.011719 223.980469 C 2787.941406 145.128906 2975.949219 159.820312 3233.761719 268.890625 C 3458.238281 363.859375 3706.511719 518.03125 3925.550781 654.050781 C 4200.71875 824.929688 4444.128906 976.078125 4578.019531 976.089844 C 4602.28125 976.089844 4622.941406 971.121094 4639.550781 960.410156 C 4681.820312 933.148438 4695.859375 870.308594 4682.46875 768.300781 L 4686.191406 767.808594 C 4699.789062 871.410156 4685.191406 935.441406 4641.578125 963.558594 C 4624.480469 974.589844 4603.230469 979.699219 4578.351562 979.710938 C 4442.859375 979.71875 4199.101562 828.339844 3923.570312 657.238281 C 3704.640625 521.289062 3456.511719 367.199219 3232.300781 272.351562 C 2975.671875 163.769531 2788.789062 149 2660.96875 227.179688 C 2579.070312 277.269531 2520.289062 367.609375 2486.28125 495.691406 C 2449.121094 635.628906 2440.148438 825.578125 2459.601562 1060.261719 C 2490.488281 1432.628906 2478.78125 1613.621094 2422.75 1629.859375 C 2419.929688 1630.679688 2417 1631.078125 2413.980469 1631.078125 C 2338.601562 1631.109375 2206.449219 1378.191406 2040.828125 1061.21875 C 1800.941406 602.109375 1502.421875 30.71875 1277.359375 79.019531 C 1196.808594 96.308594 1129.601562 193.96875 1077.601562 369.300781 C 1019.601562 564.859375 978.460938 863.859375 955.347656 1258.03125 C 908.160156 2062.550781 795.175781 2476.941406 609.925781 2524.871094 C 597.390625 2528.109375 584.65625 2529.679688 571.75 2529.679688 "/>
<path fill-rule="nonzero" fill="rgb(54.174805%, 64.128113%, 85.60791%)" fill-opacity="1" d="M 541.683594 2538.738281 C 453.050781 2538.75 348.296875 2468.082031 223.035156 2324.191406 C 95.441406 2177.609375 -37.238281 1975.289062 -165.550781 1779.628906 C -387.5625 1441.078125 -597.257812 1121.261719 -740.097656 1154.101562 C -818.863281 1172.179688 -872.03125 1295.550781 -902.625 1531.261719 L -906.347656 1530.78125 C -875.519531 1293.328125 -821.417969 1168.921875 -740.9375 1150.441406 C -595.574219 1117.011719 -385.164062 1437.898438 -162.414062 1777.570312 C -34.167969 1973.128906 98.4375 2175.339844 225.867188 2321.730469 C 369.640625 2486.890625 485.824219 2555.011719 581.078125 2529.960938 C 767.675781 2480.890625 883.675781 2074.96875 935.707031 1289.019531 C 961.292969 902.53125 1004.730469 609 1064.820312 416.570312 C 1119.070312 242.871094 1188.878906 145.589844 1272.339844 127.429688 C 1505.058594 76.820312 1807.589844 637.941406 2050.75 1088.789062 C 2217.25 1397.53125 2361.148438 1664.050781 2433.199219 1642.789062 C 2487.359375 1626.761719 2499.609375 1445.210938 2470.671875 1087.75 C 2452.238281 860.128906 2461.921875 675.101562 2499.441406 537.789062 C 2533.96875 411.390625 2593.269531 321.238281 2675.699219 269.820312 C 2806.910156 187.988281 2999 199.5 3262.921875 305.019531 C 3492.710938 396.878906 3747 548 3971.351562 681.320312 C 4303.480469 878.691406 4590.300781 1049.148438 4699.78125 977.039062 C 4741.621094 949.46875 4755.660156 888.140625 4742.71875 789.550781 L 4746.441406 789.058594 C 4759.589844 889.21875 4745 951.730469 4701.839844 980.171875 C 4590.429688 1053.570312 4302.660156 882.558594 3969.441406 684.550781 C 3745.199219 551.289062 3491.039062 400.261719 3261.53125 308.5 C 2998.789062 203.449219 2807.820312 191.859375 2677.691406 273.011719 C 2596.078125 323.898438 2537.328125 413.320312 2503.058594 538.78125 C 2465.648438 675.660156 2456.019531 860.261719 2474.410156 1087.449219 C 2503.921875 1451.941406 2491.171875 1629.550781 2434.261719 1646.390625 C 2431.210938 1647.289062 2428.050781 1647.738281 2424.789062 1647.738281 C 2347.941406 1647.75 2214.539062 1400.390625 2047.441406 1090.570312 C 1804.878906 640.820312 1502.980469 81.148438 1273.140625 131.089844 C 1191.101562 148.949219 1122.210938 245.371094 1068.398438 417.691406 C 1008.398438 609.839844 965.011719 903.078125 939.445312 1289.261719 C 887.296875 2077.03125 770.386719 2484.050781 582.035156 2533.589844 C 568.96875 2537.019531 555.515625 2538.738281 541.683594 2538.738281 "/>
<path fill-rule="nonzero" fill="rgb(66.610718%, 67.240906%, 86.698914%)" fill-opacity="1" d="M 510.167969 2547.890625 C 420.199219 2547.898438 314.289062 2479.390625 188.117188 2339.980469 C 58.5 2196.761719 -76.050781 1998.511719 -206.167969 1806.78125 C -431.125 1475.339844 -643.5625 1162.25 -789.480469 1196.210938 C -869.585938 1214.839844 -924.242188 1336.101562 -956.574219 1566.921875 L -960.289062 1566.398438 C -927.714844 1333.871094 -872.121094 1211.578125 -790.328125 1192.550781 C -641.972656 1158.03125 -428.769531 1472.128906 -203.070312 1804.679688 C -73.019531 1996.289062 61.457031 2194.429688 190.898438 2337.460938 C 336.964844 2498.859375 455.285156 2564.679688 552.683594 2538.628906 C 742.421875 2487.910156 862.347656 2089.210938 919.320312 1319.738281 C 947.363281 941.089844 993.074219 653.210938 1055.179688 464.109375 C 1111.25 293.371094 1182.75 197.308594 1267.699219 178.570312 C 1505.210938 126.191406 1811.371094 675.839844 2057.339844 1117.519531 C 2225.769531 1419.96875 2371.179688 1681.179688 2444.890625 1658.941406 C 2499.929688 1642.308594 2513.261719 1464.171875 2485.648438 1114.351562 C 2468.269531 894.101562 2478.558594 714.339844 2516.261719 580.078125 C 2551.011719 456.308594 2610.21875 367.121094 2692.25 314.960938 C 2825.738281 230.089844 3021.988281 238.390625 3292.261719 340.351562 C 3527.53125 429.109375 3788.058594 577.191406 4017.929688 707.828125 C 4300.75 868.578125 4551.460938 1011.058594 4691.210938 1011.078125 C 4719.191406 1011.078125 4742.699219 1005.371094 4761.148438 992.960938 C 4802.519531 965.121094 4816.550781 905.289062 4804.050781 810.058594 L 4807.769531 809.570312 C 4820.46875 906.359375 4805.910156 967.359375 4763.25 996.058594 C 4744.28125 1008.828125 4720.140625 1014.691406 4691.511719 1014.691406 C 4550.238281 1014.710938 4299.21875 872.019531 4016.070312 711.089844 C 3786.328125 580.519531 3525.929688 432.519531 3290.929688 343.859375 C 3021.859375 242.339844 2826.691406 233.921875 2694.261719 318.121094 C 2613.039062 369.769531 2554.371094 458.238281 2519.878906 581.089844 C 2482.300781 714.929688 2472.039062 894.238281 2489.390625 1114.058594 C 2517.539062 1470.789062 2503.75 1645.070312 2445.96875 1662.53125 C 2442.679688 1663.519531 2439.261719 1664.011719 2435.738281 1664.011719 C 2357.398438 1664.019531 2222.691406 1422.128906 2054.070312 1119.339844 C 1808.699219 678.761719 1503.378906 130.480469 1268.5 182.230469 C 1184.949219 200.660156 1114.371094 295.890625 1058.738281 465.28125 C 996.730469 654.089844 951.078125 941.671875 923.0625 1320.019531 C 865.953125 2091.28125 745.121094 2491.070312 553.648438 2542.25 C 539.585938 2546.011719 525.09375 2547.890625 510.167969 2547.890625 "/>
<path fill-rule="nonzero" fill="rgb(47.467041%, 58.538818%, 83.161926%)" fill-opacity="1" d="M 477.933594 2557.019531 C 386.625 2557.03125 279.578125 2490.667969 152.507812 2355.691406 C 20.789062 2215.769531 -115.707031 2021.511719 -247.714844 1833.660156 C -475.726562 1509.171875 -691.144531 1202.628906 -840.097656 1237.800781 C -921.550781 1257 -977.707031 1376.191406 -1011.78125 1602.199219 L -1015.488281 1601.640625 C -981.164062 1373.949219 -924.074219 1253.738281 -840.960938 1234.148438 C -689.472656 1198.460938 -473.40625 1505.949219 -244.644531 1831.5 C -112.71875 2019.25 23.707031 2213.398438 155.238281 2353.109375 C 303.671875 2510.78125 424.238281 2574.28125 523.804688 2547.230469 C 716.695312 2494.832031 840.558594 2103.191406 902.476562 1349.941406 C 932.96875 978.988281 980.945312 696.671875 1045.070312 510.820312 C 1102.980469 343 1176.171875 248.101562 1262.621094 228.769531 C 1505.160156 174.511719 1814.980469 712.988281 2063.890625 1145.660156 C 2234.351562 1441.980469 2381.570312 1697.871094 2456.71875 1674.71875 C 2512.648438 1657.460938 2527.050781 1482.671875 2500.761719 1140.359375 C 2484.398438 927.339844 2495.289062 752.789062 2533.128906 621.550781 C 2568.058594 500.410156 2627.109375 412.191406 2708.660156 359.359375 C 2844.449219 271.390625 3045 276.480469 3321.789062 374.878906 C 3562.730469 460.539062 3829.730469 605.609375 4065.308594 733.601562 C 4412.300781 922.128906 4711.980469 1084.949219 4823.71875 1008.199219 C 4864.570312 980.140625 4878.558594 921.808594 4866.488281 829.878906 L 4870.210938 829.390625 C 4882.480469 922.859375 4867.96875 982.359375 4825.851562 1011.289062 C 4712.171875 1089.351562 4411.578125 926.011719 4063.519531 736.898438 C 3828.058594 608.96875 3561.199219 463.980469 3320.53125 378.421875 C 3044.910156 280.421875 2845.441406 275.21875 2710.699219 362.511719 C 2629.929688 414.839844 2571.398438 502.339844 2536.730469 622.589844 C 2499.019531 753.390625 2488.179688 927.5 2504.5 1140.070312 C 2531.308594 1489.171875 2516.480469 1660.199219 2457.828125 1678.300781 C 2454.28125 1679.398438 2450.589844 1679.929688 2446.78125 1679.929688 C 2366.910156 1679.941406 2230.851562 1443.410156 2060.628906 1147.53125 C 1812.351562 715.929688 1503.308594 178.738281 1263.429688 232.429688 C 1178.351562 251.460938 1106.070312 345.53125 1048.621094 512.050781 C 984.59375 697.601562 936.679688 979.609375 906.210938 1350.25 C 844.152344 2105.261719 719.386719 2497.988281 524.785156 2550.851562 C 509.644531 2554.960938 494.027344 2557.019531 477.933594 2557.019531 "/>
<path fill-rule="nonzero" fill="rgb(49.298096%, 60.520935%, 84.155273%)" fill-opacity="1" d="M 444.964844 2566.140625 C 352.324219 2566.140625 244.140625 2501.898438 116.183594 2371.308594 C -17.710938 2234.648438 -156.246094 2044.300781 -290.21875 1860.230469 C -521.410156 1542.570312 -739.792969 1242.570312 -892 1278.878906 C -974.804688 1298.640625 -1032.460938 1415.820312 -1068.28125 1637.101562 L -1071.980469 1636.5 C -1035.898438 1413.558594 -977.308594 1295.390625 -892.871094 1275.230469 C -738.21875 1238.320312 -519.132812 1539.328125 -287.1875 1858.019531 C -153.292969 2041.988281 -14.839844 2232.21875 118.863281 2368.679688 C 269.761719 2522.691406 392.621094 2583.890625 494.445312 2555.769531 C 690.5 2501.648438 818.300781 2116.929688 885.140625 1379.648438 C 918.089844 1016.289062 968.339844 739.429688 1034.5 556.769531 C 1094.25 391.78125 1169.140625 298.019531 1257.089844 278.078125 C 1504.890625 221.859375 1818.46875 749.398438 2070.441406 1173.261719 C 2243.019531 1463.578125 2392.128906 1714.320312 2468.761719 1690.140625 C 2525.558594 1672.230469 2541.019531 1500.71875 2516.039062 1165.820312 C 2500.679688 959.910156 2512.121094 790.480469 2550.039062 662.238281 C 2585.101562 543.71875 2643.941406 456.519531 2724.941406 403.070312 C 2863.019531 311.96875 3067.960938 313.800781 3351.488281 408.648438 C 3598.269531 491.210938 3871.960938 633.28125 4113.441406 758.628906 C 4404.140625 909.519531 4662.371094 1043.550781 4808.238281 1043.558594 C 4840.410156 1043.558594 4867.101562 1037.050781 4887.480469 1022.761719 C 4927.78125 994.519531 4941.699219 937.671875 4930.058594 848.96875 L 4933.78125 848.480469 C 4945.621094 938.699219 4931.179688 996.710938 4889.628906 1025.828125 C 4868.710938 1040.488281 4841.371094 1047.171875 4808.511719 1047.171875 C 4661.199219 1047.191406 4402.691406 912.988281 4111.710938 761.949219 C 3870.359375 636.671875 3596.800781 494.679688 3350.300781 412.210938 C 3067.929688 317.75 2864.050781 315.78125 2727.011719 406.199219 C 2646.761719 459.148438 2588.429688 545.648438 2553.640625 663.308594 C 2515.851562 791.101562 2504.460938 960.078125 2519.78125 1165.539062 C 2545.261719 1507.121094 2529.410156 1674.949219 2469.890625 1693.710938 C 2466.058594 1694.921875 2462.070312 1695.511719 2457.960938 1695.511719 C 2376.539062 1695.53125 2239.070312 1464.261719 2067.21875 1175.171875 C 1815.871094 752.359375 1503.011719 226.140625 1257.921875 281.730469 C 1171.300781 301.371094 1097.308594 394.339844 1038.019531 558.039062 C 971.972656 740.398438 921.796875 1016.941406 888.878906 1379.988281 C 821.875 2119.011719 693.183594 2504.800781 495.445312 2559.390625 C 479.144531 2563.890625 462.328125 2566.140625 444.964844 2566.140625 "/>
<path fill-rule="nonzero" fill="rgb(41.288757%, 49.569702%, 78.338623%)" fill-opacity="1" d="M 411.234375 2575.269531 C 317.261719 2575.269531 207.964844 2513.121094 79.128906 2386.851562 C -57.03125 2253.398438 -197.6875 2066.878906 -333.707031 1886.5 C -568.195312 1575.550781 -789.660156 1281.890625 -945.1875 1319.429688 C -1029.339844 1339.789062 -1088.5 1454.980469 -1126.058594 1671.601562 L -1129.75 1670.949219 C -1091.921875 1452.699219 -1031.828125 1336.53125 -946.066406 1315.789062 C -788.167969 1277.609375 -565.960938 1572.28125 -330.714844 1884.238281 C -194.773438 2064.511719 -54.207031 2250.921875 81.753906 2384.171875 C 235.210938 2534.582031 360.4375 2593.480469 464.597656 2564.269531 C 663.824219 2508.378906 795.558594 2130.449219 867.324219 1408.890625 C 902.722656 1052.980469 955.246094 781.488281 1023.441406 601.941406 C 1085.039062 439.738281 1161.648438 347.070312 1251.128906 326.5 C 1504.210938 268.308594 1821.808594 785.058594 2076.980469 1200.28125 C 2251.78125 1484.710938 2402.71875 1730.328125 2480.988281 1705.160156 C 2538.648438 1686.589844 2555.171875 1518.300781 2531.480469 1190.691406 C 2517.101562 991.75 2529.050781 827.378906 2567.011719 702.140625 C 2602.140625 586.21875 2660.710938 500.070312 2741.089844 446.078125 C 2881.449219 351.808594 3090.898438 350.371094 3381.390625 441.671875 C 3634.199219 521.128906 3914.828125 660.21875 4162.429688 782.941406 C 4525.238281 962.761719 4838.578125 1118.058594 4952.449219 1036.671875 C 4992.140625 1008.289062 5005.980469 952.921875 4994.75 867.390625 L 4998.46875 866.910156 C 5009.898438 953.941406 4995.558594 1010.460938 4954.621094 1039.71875 C 4932.710938 1055.390625 4903.628906 1062.5 4868.46875 1062.5 C 4718.039062 1062.519531 4455.71875 932.488281 4160.761719 786.300781 C 3913.289062 663.640625 3632.800781 524.621094 3380.261719 445.25 C 3090.929688 354.320312 2882.550781 355.609375 2743.179688 449.199219 C 2663.53125 502.679688 2605.46875 588.160156 2570.589844 703.230469 C 2532.78125 828.03125 2520.871094 991.941406 2535.21875 1190.421875 C 2559.378906 1524.589844 2542.511719 1689.28125 2482.140625 1708.730469 C 2401.109375 1734.820312 2256.648438 1499.808594 2073.78125 1202.238281 C 1819.238281 788.050781 1502.441406 272.570312 1251.96875 330.160156 C 1163.789062 350.429688 1088.078125 442.320312 1026.949219 603.269531 C 958.871094 782.511719 906.421875 1053.679688 871.054688 1409.261719 C 799.117188 2132.539062 666.496094 2511.53125 465.609375 2567.878906 C 448.074219 2572.800781 429.953125 2575.269531 411.234375 2575.269531 "/>
<path fill-rule="nonzero" fill="rgb(70.301819%, 72.129822%, 85.913086%)" fill-opacity="1" d="M 376.726562 2584.398438 C 281.441406 2584.398438 171.039062 2524.320312 41.347656 2402.332031 C -97.167969 2272.039062 -240.03125 2089.269531 -378.195312 1912.519531 C -616.109375 1608.140625 -840.804688 1320.699219 -999.699219 1359.550781 C -1085.210938 1380.488281 -1145.871094 1493.738281 -1185.148438 1705.769531 L -1188.839844 1705.089844 C -1149.261719 1491.460938 -1087.679688 1377.238281 -1000.589844 1355.910156 C -839.339844 1316.480469 -613.917969 1604.851562 -375.238281 1910.210938 C -237.164062 2086.851562 -94.390625 2269.5 43.914062 2399.601562 C 200.042969 2546.449219 327.730469 2603.070312 434.269531 2572.710938 C 636.675781 2515.03125 772.332031 2143.75 848.992188 1437.671875 C 886.839844 1089.101562 941.644531 822.871094 1011.878906 646.378906 C 1075.339844 486.898438 1153.671875 395.28125 1244.691406 374.058594 C 1503.269531 313.78125 1824.980469 820.011719 2083.488281 1226.761719 C 2260.609375 1505.441406 2413.609375 1746.140625 2493.429688 1719.839844 C 2551.949219 1700.578125 2569.519531 1535.460938 2547.109375 1215.050781 C 2533.691406 1022.960938 2546.109375 863.558594 2584.050781 741.300781 C 2619.210938 627.96875 2677.449219 542.890625 2757.140625 488.449219 C 2899.800781 390.96875 3113.839844 386.25 3411.5 473.980469 C 3670.53125 550.328125 3958.320312 686.449219 4212.238281 806.539062 C 4510.96875 947.828125 4776.941406 1073.609375 4929.21875 1073.628906 C 4966.101562 1073.628906 4996.289062 1066.261719 5018.691406 1049.929688 C 5057.761719 1021.460938 5071.488281 967.558594 5060.671875 885.128906 L 5064.390625 884.640625 C 5075.410156 968.550781 5061.179688 1023.609375 5020.898438 1052.960938 C 4904.25 1137.96875 4582.820312 985.960938 4210.628906 809.929688 C 3956.839844 689.898438 3669.179688 553.851562 3410.429688 477.578125 C 3113.921875 390.179688 2900.921875 394.75 2759.25 491.539062 C 2592.949219 605.171875 2524.78125 841.75 2550.851562 1214.789062 C 2573.699219 1541.640625 2555.828125 1703.25 2494.601562 1723.398438 C 2490.148438 1724.871094 2485.5 1725.589844 2480.679688 1725.589844 C 2396.089844 1725.601562 2255.640625 1504.601562 2080.328125 1228.769531 C 1822.449219 823.019531 1501.480469 318.070312 1245.539062 377.710938 C 1155.78125 398.640625 1078.339844 489.488281 1015.359375 647.769531 C 945.253906 823.941406 890.53125 1089.839844 852.71875 1438.078125 C 775.878906 2145.839844 639.335938 2518.167969 435.296875 2576.320312 C 416.433594 2581.699219 396.910156 2584.390625 376.726562 2584.398438 "/>
<path fill-rule="nonzero" fill="rgb(51.319885%, 84.120178%, 92.315674%)" fill-opacity="1" d="M 341.398438 2593.519531 C 244.820312 2593.519531 133.328125 2535.5 2.8125 2417.730469 C -138.140625 2290.550781 -283.300781 2111.460938 -423.679688 1938.261719 C -665.144531 1640.351562 -893.207031 1358.980469 -1055.53125 1399.199219 C -1142.390625 1420.730469 -1204.550781 1532.078125 -1245.570312 1739.621094 L -1249.238281 1738.890625 C -1207.921875 1529.78125 -1144.851562 1417.480469 -1056.429688 1395.558594 C -891.757812 1354.699219 -663.003906 1637.039062 -420.765625 1935.898438 C -280.476562 2108.988281 -135.410156 2287.960938 5.324219 2414.949219 C 164.210938 2558.300781 294.433594 2612.660156 403.429688 2581.089844 C 609 2521.570312 748.578125 2156.828125 830.128906 1466.011719 C 870.429688 1124.660156 927.515625 863.609375 999.792969 690.109375 C 1065.128906 533.289062 1145.191406 442.679688 1237.761719 420.800781 C 1502 358.359375 1828.011719 854.261719 2090.011719 1252.71875 C 2269.550781 1525.761719 2424.609375 1761.589844 2506.078125 1734.171875 C 2565.460938 1714.199219 2584.058594 1552.179688 2562.929688 1238.859375 C 2550.429688 1053.460938 2563.289062 898.96875 2601.171875 779.660156 C 2636.320312 668.910156 2694.160156 584.949219 2773.101562 530.121094 C 2918.03125 429.421875 3136.789062 421.390625 3441.839844 505.570312 C 3707.28125 578.808594 4002.480469 711.960938 4262.929688 829.441406 C 4565.75 966.019531 4835.648438 1087.75 4991.238281 1087.761719 C 5030.699219 1087.761719 5062.769531 1079.941406 5086.210938 1062.539062 C 5124.601562 1034.019531 5138.199219 981.570312 5127.78125 902.191406 L 5131.5 901.710938 C 5142.109375 982.550781 5128.03125 1036.148438 5088.441406 1065.550781 C 4970.878906 1152.871094 4642.101562 1004.570312 4261.390625 832.851562 C 4001.058594 715.429688 3706 582.351562 3440.839844 509.179688 C 3136.929688 425.320312 2919.199219 433.179688 2775.230469 533.199219 C 2610.601562 647.570312 2542.378906 878.320312 2566.671875 1238.601562 C 2588.21875 1558.238281 2569.351562 1716.839844 2507.28125 1737.730469 C 2423.050781 1766 2274.710938 1540.429688 2086.878906 1254.78125 C 1825.519531 857.300781 1500.238281 362.621094 1238.621094 424.449219 C 1147.289062 446.039062 1068.101562 535.898438 1003.25 691.550781 C 931.109375 864.730469 874.113281 1125.449219 833.851562 1466.449219 C 752.105469 2158.929688 611.652344 2524.710938 404.472656 2584.691406 C 384.175781 2590.570312 363.160156 2593.519531 341.398438 2593.519531 "/>
<path fill-rule="nonzero" fill="rgb(69.003296%, 75.541687%, 90.750122%)" fill-opacity="1" d="M 305.265625 2602.660156 C 207.40625 2602.671875 94.839844 2546.667969 -36.472656 2433.089844 C -179.960938 2308.980469 -327.511719 2133.480469 -470.207031 1963.769531 C -715.363281 1672.199219 -946.953125 1396.738281 -1112.761719 1438.410156 C -1200.980469 1460.539062 -1264.648438 1570.03125 -1307.390625 1773.121094 L -1311.070312 1772.351562 C -1267.988281 1567.71875 -1203.429688 1457.289062 -1113.679688 1434.769531 C -945.597656 1392.589844 -713.269531 1668.859375 -467.335938 1961.359375 C -324.738281 2130.960938 -177.28125 2306.328125 -34.019531 2430.25 C 127.730469 2570.160156 260.582031 2622.21875 372.113281 2589.429688 C 580.867188 2528.050781 724.359375 2169.699219 810.792969 1493.898438 C 853.542969 1159.660156 912.90625 903.691406 987.234375 733.109375 C 1054.441406 578.890625 1136.238281 489.261719 1230.371094 466.710938 C 1500.21875 401.988281 1830.878906 887.800781 2096.511719 1278.121094 C 2278.578125 1545.660156 2435.808594 1776.648438 2518.949219 1748.121094 C 2579.171875 1727.421875 2598.789062 1568.441406 2578.929688 1262.121094 C 2567.339844 1083.289062 2580.601562 933.621094 2618.359375 817.269531 C 2653.460938 709.101562 2710.859375 626.289062 2788.960938 571.148438 C 2936.171875 467.210938 3159.71875 455.871094 3472.378906 536.46875 C 3744.410156 606.601562 4047.261719 736.78125 4314.460938 851.640625 C 4702.859375 1018.601562 5038.300781 1162.789062 5155 1074.519531 C 5192.699219 1046 5206.140625 994.988281 5196.109375 918.589844 L 5199.828125 918.101562 C 5210.050781 995.960938 5196.128906 1048.101562 5157.261719 1077.511719 C 5132.21875 1096.449219 5097.410156 1104.929688 5054.441406 1104.929688 C 4894.191406 1104.941406 4620.109375 987.109375 4312.980469 855.089844 C 4045.898438 740.28125 3743.191406 610.160156 3471.441406 540.109375 C 3159.910156 459.800781 2937.378906 470.949219 2791.121094 574.210938 C 2630.570312 687.570312 2560.441406 918.929688 2582.671875 1261.871094 C 2602.929688 1574.410156 2583.070312 1730.039062 2520.171875 1751.671875 C 2515 1753.441406 2509.578125 1754.308594 2503.949219 1754.308594 C 2416.039062 1754.328125 2272.410156 1543.25 2093.410156 1280.238281 C 1828.429688 890.859375 1498.609375 406.261719 1231.25 470.351562 C 1138.320312 492.609375 1057.378906 581.519531 990.675781 734.609375 C 916.488281 904.859375 857.21875 1160.488281 814.515625 1494.378906 C 727.871094 2171.808594 583.507812 2531.179688 373.171875 2593.03125 C 351.351562 2599.449219 328.726562 2602.660156 305.265625 2602.660156 "/>
<path fill-rule="nonzero" fill="rgb(43.640137%, 71.153259%, 82.722473%)" fill-opacity="1" d="M 268.28125 2611.820312 C 169.160156 2611.828125 55.554688 2557.820312 -76.527344 2448.371094 C -222.640625 2327.289062 -372.683594 2155.328125 -517.785156 1989.03125 C -766.753906 1703.691406 -1001.921875 1434.171875 -1171.378906 1477.179688 C -1260.949219 1499.929688 -1326.109375 1607.589844 -1370.578125 1806.320312 L -1374.238281 1805.5 C -1329.429688 1605.25 -1263.378906 1496.679688 -1172.300781 1473.550781 C -1000.609375 1429.898438 -764.710938 1700.320312 -514.957031 1986.558594 C -369.953125 2152.75 -220.015625 2324.589844 -74.136719 2445.488281 C 90.59375 2581.988281 226.148438 2631.789062 340.296875 2597.710938 C 552.214844 2534.449219 699.609375 2182.359375 790.894531 1521.351562 C 836.09375 1194.109375 897.738281 943.140625 974.125 775.429688 C 1043.199219 623.761719 1126.75 535.058594 1222.460938 511.808594 C 1498.308594 444.789062 1833.601562 920.660156 2103.019531 1303.019531 C 2287.71875 1565.140625 2447.238281 1791.558594 2532.058594 1761.710938 C 2593.109375 1740.25 2613.738281 1584.269531 2595.128906 1284.828125 C 2584.421875 1112.441406 2598.050781 967.519531 2635.640625 854.101562 C 2670.640625 748.5 2727.539062 666.878906 2804.75 611.511719 C 2954.210938 504.320312 3182.691406 489.660156 3503.191406 566.691406 C 3782.019531 633.691406 4092.769531 760.921875 4366.941406 873.160156 C 4678.019531 1000.511719 4955.921875 1114.269531 5118.339844 1114.289062 C 5163.429688 1114.289062 5199.578125 1105.53125 5225.109375 1085.859375 C 5262.078125 1057.390625 5275.359375 1007.820312 5265.699219 934.320312 L 5269.421875 933.828125 C 5279.261719 1008.769531 5265.519531 1059.46875 5227.398438 1088.828125 C 5201.300781 1108.941406 5164.390625 1117.890625 5118.511719 1117.898438 C 4954.851562 1117.910156 4676.78125 1004.058594 4365.519531 876.628906 C 4091.46875 764.441406 3780.859375 637.269531 3502.320312 570.328125 C 3182.929688 493.578125 2955.460938 508.050781 2806.941406 614.558594 C 2648.308594 728.308594 2578.308594 953.75 2598.871094 1284.601562 C 2617.859375 1590.128906 2597.03125 1742.859375 2533.308594 1765.25 C 2445.800781 1795.988281 2293.179688 1579.398438 2099.949219 1305.179688 C 1831.191406 923.75 1496.671875 449.039062 1223.351562 515.460938 C 1128.808594 538.421875 1046.109375 626.410156 977.535156 776.980469 C 901.304688 944.371094 839.757812 1194.980469 794.613281 1521.871094 C 703.101562 2184.488281 554.84375 2537.582031 341.367188 2601.300781 C 317.914062 2608.300781 293.558594 2611.808594 268.28125 2611.820312 "/>
<path fill-rule="nonzero" fill="rgb(78.00293%, 83.862305%, 94.190979%)" fill-opacity="1" d="M 230.433594 2621 C 130.074219 2621.011719 15.445312 2568.988281 -117.359375 2463.609375 C -266.203125 2345.511719 -418.828125 2177.011719 -566.429688 2014.058594 C -819.363281 1734.820312 -1058.269531 1471.078125 -1231.429688 1515.539062 C -1322.359375 1538.890625 -1389.019531 1644.761719 -1435.21875 1839.199219 L -1438.871094 1838.328125 C -1392.320312 1642.410156 -1324.769531 1535.640625 -1232.359375 1511.910156 C -1056.960938 1466.878906 -817.363281 1731.441406 -563.652344 2011.539062 C -416.148438 2174.378906 -263.628906 2342.769531 -115.03125 2460.667969 C 52.78125 2593.820312 191.152344 2641.328125 307.980469 2605.941406 C 523.0625 2540.78125 674.347656 2194.851562 770.480469 1548.410156 C 818.121094 1228.050781 882.050781 981.988281 960.492188 817.078125 C 1031.449219 667.898438 1116.761719 580.109375 1214.050781 556.148438 C 1495.988281 486.730469 1836.171875 952.871094 2109.519531 1327.421875 C 2296.96875 1584.238281 2458.828125 1806.109375 2545.429688 1774.96875 C 2607.28125 1752.75 2628.910156 1599.699219 2611.550781 1307.070312 C 2601.679688 1140.941406 2615.640625 1000.679688 2653.039062 890.179688 C 2687.898438 787.140625 2744.25 706.738281 2820.511719 651.230469 C 2972.210938 540.78125 3205.691406 522.800781 3534.261719 596.238281 C 3820.058594 660.121094 4138.960938 784.371094 4420.320312 894 C 4827.039062 1052.46875 5178.289062 1189.320312 5296.578125 1096.589844 C 5332.789062 1068.199219 5345.878906 1020.050781 5336.601562 949.398438 L 5340.320312 948.910156 C 5349.78125 1020.988281 5336.230469 1070.261719 5298.890625 1099.539062 C 5271.710938 1120.851562 5232.578125 1130.289062 5183.621094 1130.289062 C 5016.46875 1130.308594 4734.359375 1020.378906 4418.960938 897.488281 C 4137.730469 787.921875 3818.96875 663.71875 3533.441406 599.898438 C 3205.988281 526.710938 2973.5 544.488281 2822.71875 654.261719 C 2666.140625 768.238281 2596.351562 987.808594 2615.289062 1306.839844 C 2633.011719 1605.449219 2611.210938 1755.320312 2546.699219 1778.5 C 2457.460938 1810.589844 2302.601562 1598.320312 2106.5 1329.628906 C 1833.800781 955.988281 1494.398438 491.019531 1214.949219 559.789062 C 1118.800781 583.460938 1034.328125 670.570312 963.878906 818.691406 C 885.597656 983.269531 821.773438 1228.96875 774.191406 1548.96875 C 677.824219 2196.988281 525.679688 2543.898438 309.066406 2609.53125 C 283.863281 2617.171875 257.664062 2621 230.433594 2621 "/>
<path fill-rule="nonzero" fill="rgb(63.066101%, 80.198669%, 86.103821%)" fill-opacity="1" d="M 191.714844 2630.191406 C 90.148438 2630.191406 -25.460938 2580.128906 -158.953125 2478.78125 C -310.617188 2363.628906 -465.933594 2198.53125 -616.136719 2038.859375 C -873.167969 1765.628906 -1115.949219 1507.550781 -1292.910156 1553.5 C -1385.199219 1577.46875 -1453.351562 1681.578125 -1501.261719 1871.789062 L -1504.898438 1870.871094 C -1456.621094 1679.210938 -1387.589844 1574.210938 -1293.851562 1549.871094 C -1114.710938 1503.371094 -871.222656 1762.230469 -613.402344 2036.289062 C -463.308594 2195.851562 -308.101562 2360.828125 -156.683594 2475.789062 C 14.324219 2605.621094 155.589844 2650.878906 275.1875 2614.101562 C 493.417969 2547.011719 648.570312 2207.128906 749.515625 1575.039062 C 799.601562 1261.460938 865.8125 1020.230469 946.3125 858.058594 C 1019.160156 711.320312 1106.230469 624.398438 1205.121094 599.71875 C 1493.269531 527.808594 1838.570312 984.429688 2116.03125 1351.320312 C 2306.339844 1602.96875 2470.660156 1820.351562 2559.011719 1787.878906 C 2621.660156 1764.871094 2644.269531 1614.699219 2628.128906 1328.78125 C 2619.101562 1168.789062 2633.359375 1033.109375 2670.511719 925.5 C 2705.199219 825.011719 2760.949219 745.878906 2836.199219 690.300781 C 2990.140625 576.609375 3228.71875 555.300781 3565.601562 625.148438 C 3858.578125 685.890625 4185.890625 807.160156 4474.671875 914.160156 C 4794.109375 1032.519531 5080.140625 1138.488281 5249.679688 1138.5 C 5301.070312 1138.5 5341.75 1128.769531 5369.421875 1106.691406 C 5404.851562 1078.441406 5417.738281 1031.699219 5408.820312 963.808594 L 5412.539062 963.328125 C 5421.640625 1032.628906 5408.300781 1080.480469 5371.761719 1109.621094 C 5251.128906 1205.839844 4890.691406 1072.300781 4473.359375 917.679688 C 4184.710938 810.730469 3857.550781 689.511719 3564.828125 628.820312 C 3229.050781 559.199219 2991.441406 580.300781 2838.429688 693.320312 C 2684.019531 807.371094 2614.519531 1021.089844 2631.871094 1328.558594 C 2648.351562 1620.351562 2625.601562 1767.421875 2560.308594 1791.398438 C 2554.101562 1793.679688 2547.53125 1794.789062 2540.640625 1794.789062 C 2446.691406 1794.800781 2291.191406 1589.160156 2113.039062 1353.578125 C 1836.25 987.570312 1491.808594 532.058594 1206.019531 603.359375 C 1108.261719 627.761719 1022.011719 714.011719 949.671875 859.730469 C 869.339844 1021.558594 803.242188 1262.421875 753.214844 1575.640625 C 652.027344 2209.269531 496.019531 2550.128906 276.289062 2617.679688 C 249.214844 2626.011719 221.039062 2630.179688 191.714844 2630.191406 "/>
<path fill-rule="nonzero" fill="rgb(55.06134%, 61.857605%, 84.552002%)" fill-opacity="1" d="M 152.066406 2639.398438 C 49.328125 2639.410156 -67.238281 2591.269531 -201.371094 2493.898438 C -355.964844 2381.671875 -514.074219 2219.898438 -666.976562 2063.460938 C -928.246094 1796.140625 -1175.011719 1543.660156 -1355.878906 1591.109375 C -1449.519531 1615.679688 -1519.171875 1718.078125 -1568.800781 1904.128906 L -1572.421875 1903.171875 C -1522.421875 1715.691406 -1451.898438 1612.429688 -1356.839844 1587.480469 C -1173.839844 1539.480469 -926.351562 1792.71875 -664.296875 2060.839844 C -511.5 2217.171875 -353.503906 2378.820312 -199.164062 2490.871094 C -24.835938 2617.421875 119.4375 2660.378906 241.882812 2622.210938 C 463.253906 2553.191406 622.269531 2219.238281 728.011719 1601.289062 C 780.535156 1294.371094 849.027344 1057.878906 931.585938 898.410156 C 1006.320312 754.050781 1095.160156 667.960938 1195.640625 642.558594 C 1490.261719 568.050781 1840.828125 1015.351562 2122.550781 1374.738281 C 2315.828125 1621.320312 2482.769531 1834.261719 2572.878906 1800.460938 C 2636.300781 1776.648438 2659.878906 1629.308594 2644.949219 1350.019531 C 2636.730469 1196.011719 2651.25 1064.820312 2688.121094 960.089844 C 2722.601562 862.140625 2777.699219 784.300781 2851.898438 728.738281 C 3008.019531 611.808594 3251.828125 587.179688 3597.230469 653.421875 C 3897.601562 711.03125 4233.558594 829.308594 4529.988281 933.671875 C 4956.058594 1083.679688 5324.050781 1213.230469 5443.691406 1116.191406 C 5478.308594 1088.121094 5490.980469 1042.78125 5482.421875 977.589844 L 5486.140625 977.101562 C 5494.878906 1043.691406 5481.769531 1090.140625 5446.050781 1119.109375 C 5416.691406 1142.921875 5372.78125 1153.359375 5317.078125 1153.359375 C 5142.710938 1153.371094 4852.460938 1051.179688 4528.738281 937.210938 C 4232.441406 832.890625 3896.621094 714.648438 3596.519531 657.109375 C 3252.210938 591.070312 3009.371094 615.480469 2854.140625 731.738281 C 2702 845.679688 2632.878906 1053.628906 2648.691406 1349.820312 C 2663.929688 1634.859375 2640.261719 1779.171875 2574.199219 1803.96875 C 2567.511719 1806.480469 2560.421875 1807.691406 2552.96875 1807.699219 C 2457.171875 1807.710938 2299.789062 1606.921875 2119.601562 1377.058594 C 1838.539062 1018.511719 1488.78125 572.320312 1196.558594 646.191406 C 1097.171875 671.328125 1009.140625 756.761719 934.917969 900.128906 C 852.535156 1059.269531 784.164062 1295.378906 731.710938 1601.921875 C 625.703125 2221.398438 465.84375 2556.308594 242.996094 2625.789062 C 213.925781 2634.851562 183.644531 2639.398438 152.066406 2639.398438 "/>
<path fill-rule="nonzero" fill="rgb(65.065002%, 88.557434%, 93.611145%)" fill-opacity="1" d="M 111.492188 2648.648438 C 7.617188 2648.648438 -109.859375 2602.421875 -244.578125 2508.96875 C -402.210938 2399.621094 -563.222656 2241.128906 -718.929688 2087.839844 C -984.589844 1826.328125 -1235.53125 1579.320312 -1420.371094 1628.328125 C -1515.359375 1653.511719 -1586.488281 1754.210938 -1637.828125 1936.191406 L -1641.441406 1935.179688 C -1589.710938 1751.808594 -1517.710938 1650.25 -1421.328125 1624.699219 C -1234.371094 1575.078125 -982.742188 1822.890625 -716.300781 2085.171875 C -560.699219 2238.339844 -399.808594 2396.730469 -242.441406 2505.890625 C -64.671875 2629.210938 82.683594 2669.890625 208.089844 2630.261719 C 432.574219 2559.300781 595.425781 2231.179688 705.9375 1627.148438 C 760.890625 1326.800781 831.660156 1094.980469 916.28125 938.140625 C 992.902344 796.109375 1083.519531 710.839844 1185.601562 684.691406 C 1486.769531 607.53125 1842.898438 1045.648438 2129.050781 1397.679688 C 2325.460938 1639.308594 2495.179688 1847.941406 2587.019531 1812.691406 C 2651.191406 1788.058594 2675.71875 1643.5 2662 1370.738281 C 2654.550781 1222.578125 2669.320312 1095.800781 2705.859375 993.929688 C 2740.089844 898.511719 2794.511719 822 2867.589844 766.539062 C 3025.871094 646.398438 3274.988281 618.449219 3629.160156 681.078125 C 3937.109375 735.53125 4282 850.808594 4586.289062 952.519531 C 5022.449219 1098.308594 5399.128906 1224.210938 5519.339844 1125.109375 C 5553.140625 1097.25 5565.578125 1053.289062 5557.359375 990.730469 L 5561.078125 990.238281 C 5569.46875 1054.191406 5556.601562 1099.25 5521.730469 1128 C 5399.890625 1228.421875 5022.308594 1102.210938 4585.101562 956.078125 C 4280.929688 854.410156 3936.179688 739.179688 3628.511719 684.769531 C 3275.398438 622.328125 3027.269531 650.050781 2869.851562 769.519531 C 2720.089844 883.191406 2651.421875 1085.410156 2665.75 1370.550781 C 2679.75 1648.949219 2655.148438 1790.558594 2588.359375 1816.191406 C 2581.171875 1818.949219 2573.511719 1820.28125 2565.449219 1820.28125 C 2467.75 1820.308594 2308.441406 1624.300781 2126.140625 1400.039062 C 1840.660156 1048.839844 1485.390625 611.761719 1186.53125 688.320312 C 1085.5 714.199219 995.6875 798.851562 919.578125 939.921875 C 835.148438 1096.421875 764.511719 1327.859375 709.628906 1627.820312 C 598.839844 2233.351562 435.15625 2562.417969 209.214844 2633.839844 C 178.015625 2643.699219 145.480469 2648.648438 111.492188 2648.648438 "/>
<path fill-rule="nonzero" fill="rgb(51.271057%, 58.48999%, 82.933044%)" fill-opacity="1" d="M 69.953125 2657.949219 C -35.03125 2657.949219 -153.375 2613.601562 -288.625 2524.011719 C -449.398438 2417.511719 -613.421875 2262.21875 -772.039062 2112.050781 C -1042.230469 1856.238281 -1297.398438 1614.640625 -1486.390625 1665.199219 C -1582.730469 1690.988281 -1655.351562 1790.039062 -1708.390625 1968 L -1711.980469 1966.921875 C -1658.539062 1787.609375 -1585.058594 1687.730469 -1487.359375 1661.578125 C -1296.378906 1610.46875 -1040.441406 1852.78125 -769.460938 2109.328125 C -610.957031 2259.390625 -447.058594 2414.558594 -286.554688 2520.878906 C -105.210938 2641.011719 45.363281 2679.398438 173.773438 2638.28125 C 401.371094 2565.378906 568.035156 2242.96875 683.292969 1652.621094 C 740.675781 1358.730469 813.722656 1131.5 900.402344 977.230469 C 978.921875 837.488281 1071.308594 752.988281 1175.011719 726.089844 C 1482.960938 646.210938 1844.820312 1075.328125 2135.570312 1420.140625 C 2335.210938 1656.898438 2507.589844 1861.359375 2601.429688 1824.578125 C 2666.328125 1799.128906 2691.789062 1657.308594 2679.269531 1391 C 2672.578125 1248.519531 2687.53125 1126.070312 2723.71875 1027.03125 C 2757.679688 934.128906 2811.359375 858.988281 2883.28125 803.699219 C 3043.699219 680.378906 3298.21875 649.121094 3661.398438 708.121094 C 3977.121094 759.421875 4331.199219 871.679688 4643.589844 970.71875 C 4975.609375 1075.980469 5273.980469 1170.570312 5454.800781 1170.578125 C 5517.140625 1170.578125 5565.5 1159.339844 5596.460938 1133.410156 C 5629.410156 1105.808594 5641.609375 1063.21875 5633.730469 1003.21875 L 5637.449219 1002.730469 C 5645.5 1064.109375 5632.890625 1107.800781 5598.871094 1136.289062 C 5567.300781 1162.71875 5518.089844 1174.179688 5454.828125 1174.179688 C 5272.941406 1174.199219 4974.519531 1079.570312 4642.460938 974.300781 C 4330.191406 875.289062 3976.25 763.078125 3660.789062 711.828125 C 3298.699219 653 3045.121094 684.019531 2885.570312 806.671875 C 2738.269531 919.898438 2670.128906 1116.441406 2683.019531 1390.820312 C 2695.789062 1662.660156 2670.308594 1801.601562 2602.800781 1828.070312 C 2595.050781 1831.109375 2586.808594 1832.570312 2578.089844 1832.570312 C 2478.449219 1832.578125 2317.140625 1641.289062 2132.710938 1422.558594 C 1842.628906 1078.550781 1481.628906 650.410156 1175.949219 729.71875 C 1073.28125 756.359375 981.671875 840.25 903.671875 979.070312 C 817.1875 1132.988281 744.28125 1359.839844 686.976562 1653.339844 C 571.429688 2245.148438 403.933594 2568.5 174.917969 2641.851562 C 141.449219 2652.570312 106.511719 2657.949219 69.953125 2657.949219 "/>
<path fill-rule="nonzero" fill="rgb(62.683105%, 80.224609%, 86.061096%)" fill-opacity="1" d="M 27.40625 2667.261719 C -78.628906 2667.261719 -197.789062 2624.769531 -333.511719 2538.980469 C -497.542969 2435.300781 -664.6875 2283.179688 -826.320312 2136.070312 C -1101.199219 1885.890625 -1360.820312 1649.601562 -1553.980469 1701.75 C -1651.660156 1728.140625 -1725.761719 1825.558594 -1780.511719 1999.601562 L -1784.089844 1998.46875 C -1728.929688 1823.121094 -1653.980469 1724.878906 -1554.949219 1698.128906 C -1359.859375 1645.460938 -1099.460938 1882.398438 -823.800781 2133.289062 C -662.28125 2280.300781 -495.265625 2432.308594 -331.507812 2535.808594 C -146.472656 2652.769531 7.414062 2688.871094 138.941406 2646.21875 C 369.625 2571.390625 540.085938 2254.589844 660.066406 1677.730469 C 719.875 1390.199219 795.191406 1167.480469 883.929688 1015.738281 C 964.347656 878.238281 1058.519531 794.480469 1163.828125 766.820312 C 1478.789062 684.101562 1846.589844 1104.410156 2142.128906 1442.148438 C 2345.140625 1674.140625 2520.5 1874.488281 2616.160156 1836.121094 C 2681.75 1809.828125 2708.121094 1670.699219 2696.789062 1410.769531 C 2690.820312 1273.839844 2705.949219 1155.609375 2741.75 1059.390625 C 2775.378906 968.980469 2828.300781 895.238281 2899.019531 840.210938 C 3061.550781 713.75 3321.589844 679.191406 3693.980469 734.578125 C 4017.691406 782.71875 4381.21875 891.941406 4701.949219 988.300781 C 5159.070312 1125.640625 5553.839844 1244.230469 5675.039062 1141.160156 C 5707.148438 1113.859375 5719.078125 1072.628906 5711.53125 1015.109375 L 5715.25 1014.621094 C 5722.980469 1073.5 5710.628906 1115.828125 5677.480469 1144.019531 C 5554.699219 1248.421875 5159.03125 1129.539062 4700.871094 991.890625 C 4380.261719 895.558594 4016.871094 786.390625 3693.429688 738.289062 C 3322.101562 683.058594 3063 717.371094 2901.320312 843.171875 C 2756.589844 955.789062 2689.03125 1146.710938 2700.539062 1410.609375 C 2712.101562 1675.960938 2685.738281 1812.269531 2617.550781 1839.609375 C 2609.21875 1842.941406 2600.320312 1844.550781 2590.898438 1844.550781 C 2489.289062 1844.570312 2325.960938 1657.898438 2139.308594 1444.621094 C 1844.449219 1107.660156 1477.488281 688.308594 1164.78125 770.449219 C 1060.46875 797.851562 967.066406 881.019531 887.164062 1017.640625 C 798.636719 1169.019531 723.464844 1391.359375 663.738281 1678.488281 C 543.460938 2256.789062 372.175781 2574.5 140.101562 2649.78125 C 104.222656 2661.421875 66.714844 2667.261719 27.40625 2667.261719 "/>
<path fill-rule="nonzero" fill="rgb(55.065918%, 82.40509%, 93.42041%)" fill-opacity="1" d="M -16.148438 2676.621094 C -123.203125 2676.628906 -243.109375 2635.960938 -379.25 2553.910156 C -546.65625 2453.019531 -717.035156 2304.011719 -881.800781 2159.898438 C -1161.519531 1915.261719 -1425.730469 1684.199219 -1623.171875 1737.96875 C -1722.199219 1764.949219 -1797.78125 1860.78125 -1854.21875 2030.949219 L -1857.78125 2029.769531 C -1800.910156 1858.320312 -1724.488281 1761.691406 -1624.148438 1734.359375 C -1424.78125 1680.011719 -1159.828125 1911.761719 -879.335938 2157.078125 C -714.6875 2301.078125 -544.4375 2449.980469 -377.316406 2550.710938 C -188.453125 2664.519531 -31.144531 2698.339844 103.605469 2654.109375 C 337.355469 2577.359375 511.589844 2266.078125 636.261719 1702.480469 C 698.488281 1421.210938 776.070312 1202.921875 866.859375 1053.671875 C 949.171875 918.351562 1045.128906 835.320312 1152.058594 806.890625 C 1474.171875 721.238281 1848.171875 1132.910156 2148.679688 1463.691406 C 2355.191406 1691 2533.578125 1887.351562 2631.179688 1847.328125 C 2697.441406 1820.199219 2724.710938 1683.710938 2714.550781 1430.070312 C 2704.339844 1175.109375 2771.71875 988.71875 2914.828125 876.070312 C 3079.421875 746.511719 3345.050781 708.679688 3726.921875 760.429688 C 4058.800781 805.398438 4432.039062 911.558594 4761.339844 1005.21875 C 5101.660156 1102.019531 5408.269531 1189.210938 5596.980469 1189.230469 C 5667.78125 1189.230469 5721.949219 1176.960938 5755.128906 1148.320312 C 5786.371094 1121.351562 5798.039062 1081.449219 5790.808594 1026.339844 L 5794.53125 1025.851562 C 5801.839844 1081.53125 5789.410156 1123.691406 5757.578125 1151.160156 C 5723.78125 1180.339844 5668.710938 1192.820312 5596.941406 1192.828125 C 5407.21875 1192.839844 5100.621094 1105.621094 4760.308594 1008.828125 C 4431.128906 915.199219 4058.039062 809.078125 3726.421875 764.148438 C 3345.601562 712.539062 3080.898438 750.121094 2917.148438 879.019531 C 2775.039062 990.878906 2708.128906 1176.230469 2718.300781 1429.929688 C 2728.671875 1688.871094 2701.441406 1822.609375 2632.601562 1850.808594 C 2623.648438 1854.46875 2614.050781 1856.238281 2603.871094 1856.238281 C 2500.238281 1856.25 2334.808594 1674.140625 2145.910156 1466.21875 C 1846.078125 1136.191406 1472.941406 725.441406 1153.019531 810.511719 C 1047.058594 838.691406 951.855469 921.148438 870.0625 1055.609375 C 779.488281 1204.519531 702.058594 1422.421875 639.925781 1703.289062 C 514.941406 2268.289062 339.894531 2580.46875 104.773438 2657.671875 C 66.34375 2670.289062 26.085938 2676.621094 -16.148438 2676.621094 "/>
<path fill-rule="nonzero" fill="rgb(65.2771%, 67.173767%, 83.996582%)" fill-opacity="1" d="M -60.746094 2686.050781 C -168.761719 2686.050781 -289.378906 2647.179688 -425.859375 2568.820312 C -596.761719 2470.691406 -770.492188 2324.730469 -938.507812 2183.578125 C -1223.210938 1944.410156 -1492.109375 1718.449219 -1693.980469 1773.898438 C -1794.351562 1801.460938 -1871.398438 1895.730469 -1929.53125 2062.101562 L -1933.070312 2060.859375 C -1874.511719 1893.238281 -1796.621094 1798.191406 -1694.96875 1770.28125 C -1491.269531 1714.320312 -1221.578125 1940.878906 -936.09375 2180.710938 C -768.207031 2321.761719 -594.601562 2467.601562 -423.996094 2565.570312 C -231.160156 2676.289062 -70.3125 2707.808594 67.746094 2661.960938 C 304.546875 2583.308594 482.53125 2277.449219 611.867188 1726.898438 C 676.496094 1451.789062 756.339844 1237.851562 849.179688 1091.03125 C 933.382812 957.859375 1031.121094 875.53125 1139.671875 846.328125 C 1469.148438 757.671875 1849.589844 1160.859375 2155.25 1484.828125 C 2365.421875 1707.558594 2546.898438 1899.941406 2646.53125 1858.238281 C 2713.421875 1830.25 2741.558594 1696.359375 2732.558594 1448.949219 C 2723.648438 1203.921875 2790.308594 1023.03125 2930.710938 911.300781 C 3097.328125 778.691406 3368.691406 737.609375 3760.25 785.71875 C 4100.539062 827.519531 4483.761719 930.589844 4821.871094 1021.53125 C 5301.019531 1150.410156 5714.820312 1261.710938 5836.761719 1154.929688 C 5867.121094 1128.328125 5878.519531 1089.75 5871.589844 1036.980469 L 5875.308594 1036.5 C 5882.308594 1089.851562 5870.171875 1130.648438 5839.230469 1157.75 C 5804.320312 1188.328125 5746.058594 1201.328125 5669.648438 1201.339844 C 5475.921875 1201.351562 5165.269531 1117.78125 4820.898438 1025.148438 C 4482.910156 934.25 4099.808594 831.210938 3759.789062 789.441406 C 3369.289062 741.46875 3098.839844 782.289062 2933.050781 914.230469 C 2793.628906 1025.191406 2727.441406 1205.039062 2736.308594 1448.808594 C 2745.5 1701.441406 2717.429688 1832.640625 2647.96875 1861.710938 C 2638.351562 1865.730469 2628.011719 1867.660156 2617.011719 1867.660156 C 2511.320312 1867.671875 2343.738281 1690.050781 2152.53125 1487.398438 C 1847.539062 1164.160156 1467.988281 761.890625 1140.648438 849.949219 C 1033.03125 878.898438 936.035156 960.691406 852.347656 1093.039062 C 759.730469 1239.511719 680.050781 1453.058594 615.519531 1727.75 C 485.859375 2279.679688 307.066406 2586.429688 68.929688 2665.519531 C 27.777344 2679.191406 -15.382812 2686.050781 -60.746094 2686.050781 "/>
<path fill-rule="nonzero" fill="rgb(53.40271%, 77.328491%, 85.61554%)" fill-opacity="1" d="M -106.425781 2695.519531 C -215.34375 2695.53125 -336.597656 2658.429688 -473.351562 2583.679688 C -647.863281 2488.289062 -825.074219 2345.351562 -996.449219 2207.121094 C -1286.308594 1973.308594 -1560.078125 1752.488281 -1766.460938 1809.539062 C -1868.171875 1837.671875 -1946.691406 1930.398438 -2006.511719 2093.039062 L -2010.03125 2091.75 C -1949.761719 1927.890625 -1870.421875 1834.398438 -1767.460938 1805.921875 C -1559.238281 1748.351562 -1284.730469 1969.769531 -994.09375 2204.199219 C -822.847656 2342.328125 -645.773438 2485.160156 -471.554688 2580.390625 C -274.625 2688.03125 -110.128906 2717.261719 31.359375 2669.761719 C 271.1875 2589.238281 452.894531 2288.699219 586.859375 1750.96875 C 653.886719 1481.929688 735.980469 1272.28125 830.863281 1127.839844 C 916.964844 996.769531 1016.480469 915.121094 1126.660156 885.140625 C 1463.738281 793.421875 1850.808594 1188.25 2161.820312 1505.5 C 2375.789062 1723.761719 2560.578125 1912.230469 2662.191406 1868.808594 C 2729.691406 1839.949219 2758.679688 1708.628906 2750.820312 1467.351562 C 2743.160156 1232 2809.058594 1056.550781 2946.691406 945.871094 C 3115.300781 810.28125 3392.441406 765.980469 3793.96875 810.429688 C 4142.839844 849.050781 4536.328125 949.019531 4883.488281 1037.21875 C 5231.929688 1125.738281 5546.671875 1205.691406 5743.550781 1205.699219 C 5823.859375 1205.699219 5884.539062 1192.398438 5919.941406 1160.960938 C 5949.429688 1134.761719 5960.539062 1097.480469 5953.898438 1046.980469 L 5957.621094 1046.488281 C 5964.328125 1097.601562 5952.488281 1137.058594 5922.429688 1163.761719 C 5886.390625 1195.769531 5824.78125 1209.289062 5743.429688 1209.300781 C 5545.609375 1209.308594 5230.929688 1129.351562 4882.558594 1040.851562 C 4189.179688 864.691406 3326.238281 645.460938 2949.039062 948.789062 C 2812.378906 1058.691406 2746.949219 1233.121094 2754.570312 1467.230469 C 2762.589844 1713.609375 2733.699219 1842.308594 2663.660156 1872.261719 C 2559.679688 1916.710938 2374.078125 1727.359375 2159.148438 1508.128906 C 1848.820312 1191.578125 1462.621094 797.609375 1127.640625 888.761719 C 1018.378906 918.488281 919.582031 999.621094 833.996094 1129.898438 C 739.347656 1273.980469 657.425781 1483.25 590.5 1751.878906 C 456.199219 2290.941406 273.695312 2592.351562 32.554688 2673.320312 C -11.480469 2688.101562 -57.730469 2695.519531 -106.425781 2695.519531 "/>
<path fill-rule="nonzero" fill="rgb(38.249207%, 49.958801%, 78.672791%)" fill-opacity="1" d="M -153.226562 2705.039062 C -262.976562 2705.039062 -384.816406 2669.679688 -521.75 2598.488281 C -699.992188 2505.820312 -880.792969 2365.851562 -1055.640625 2230.5 C -1350.808594 2001.988281 -1629.628906 1786.179688 -1840.609375 1844.890625 C -1943.660156 1873.578125 -2023.648438 1964.820312 -2085.148438 2123.828125 L -2088.640625 2122.46875 C -2026.691406 1962.289062 -1945.878906 1870.308594 -1841.609375 1841.289062 C -1628.800781 1782.050781 -1349.28125 1998.429688 -1053.351562 2227.53125 C -878.632812 2362.789062 -697.960938 2502.640625 -520.019531 2595.160156 C -318.859375 2699.75 -150.582031 2726.679688 -5.582031 2677.5 C 237.253906 2595.128906 422.65625 2299.839844 561.222656 1774.730469 C 630.640625 1511.640625 714.984375 1306.199219 811.910156 1164.101562 C 899.90625 1035.089844 1001.210938 954.078125 1113.011719 923.328125 C 1457.910156 828.46875 1851.890625 1215.101562 2168.449219 1525.761719 C 2386.351562 1739.609375 2574.511719 1924.28125 2678.191406 1879.039062 C 2746.238281 1849.320312 2776.058594 1720.539062 2769.339844 1485.320312 C 2762.878906 1259.359375 2827.960938 1089.28125 2962.769531 979.800781 C 3133.328125 841.289062 3416.390625 793.800781 3828.089844 834.589844 C 4185.769531 870.03125 4589.78125 966.859375 4946.238281 1052.289062 C 5298.648438 1136.75 5617.378906 1213.128906 5818.460938 1213.140625 C 5903.988281 1213.140625 5968.199219 1199.328125 6004.71875 1166.449219 C 6033.328125 1140.691406 6044.148438 1104.679688 6037.800781 1056.378906 L 6041.519531 1055.890625 C 6047.949219 1104.820312 6036.410156 1142.960938 6007.230469 1169.230469 C 5970.070312 1202.691406 5904.890625 1216.730469 5818.300781 1216.738281 C 5616.308594 1216.75 5297.671875 1140.371094 4945.371094 1055.941406 C 4233.140625 885.230469 3346.761719 672.808594 2965.140625 982.710938 C 2831.28125 1091.410156 2766.671875 1260.480469 2773.089844 1485.210938 C 2779.859375 1722.128906 2749.308594 1852.078125 2679.691406 1882.480469 C 2668.609375 1887.320312 2656.601562 1889.621094 2643.769531 1889.621094 C 2533.851562 1889.628906 2361.808594 1720.78125 2165.820312 1528.441406 C 1849.949219 1218.449219 1456.839844 832.660156 1114.011719 926.949219 C 1003.089844 957.460938 902.488281 1037.960938 815.007812 1166.210938 C 718.324219 1307.960938 634.15625 1513.011719 564.847656 1775.679688 C 425.933594 2302.101562 239.742188 2598.25 -4.375 2681.050781 C -51.46875 2697.03125 -100.980469 2705.039062 -153.226562 2705.039062 "/>
<path fill-rule="nonzero" fill="rgb(35.032654%, 46.899414%, 76.947021%)" fill-opacity="1" d="M -201.152344 2714.628906 C -311.683594 2714.628906 -434.007812 2680.980469 -571.058594 2613.261719 C -753.164062 2523.289062 -937.691406 2386.25 -1116.140625 2253.730469 C -1416.789062 2030.460938 -1700.761719 1819.570312 -1916.5 1879.96875 C -2020.890625 1909.199219 -2102.351562 1998.960938 -2165.519531 2154.378906 L -2169 2152.96875 C -2105.359375 1996.398438 -2023.089844 1905.921875 -1917.519531 1876.359375 C -1700 1815.460938 -1415.308594 2026.878906 -1113.910156 2250.710938 C -935.589844 2383.140625 -751.199219 2520.082031 -569.398438 2609.898438 C -363.851562 2711.460938 -191.679688 2736.101562 -43.050781 2685.199219 C 202.769531 2601.03125 391.835938 2310.871094 534.957031 1798.148438 C 606.765625 1540.921875 693.351562 1339.609375 792.308594 1199.808594 C 882.199219 1072.808594 985.292969 992.441406 1098.730469 960.921875 C 1451.691406 862.851562 1852.789062 1241.410156 2175.078125 1545.589844 C 2397.078125 1755.121094 2588.808594 1936.070312 2694.539062 1888.949219 C 2763.128906 1858.371094 2793.738281 1732.070312 2788.140625 1502.839844 C 2782.851562 1286 2847.058594 1121.21875 2979 1013.070312 C 3151.449219 871.730469 3440.488281 821.058594 3862.628906 858.199219 C 4229.320312 890.449219 4644.140625 984.109375 5010.128906 1066.75 C 5366.421875 1147.191406 5689.078125 1220.039062 5894.441406 1220.050781 C 5985.511719 1220.050781 6053.480469 1205.730469 6091.121094 1171.390625 C 6118.851562 1146.078125 6129.378906 1111.339844 6123.320312 1065.148438 L 6127.039062 1064.660156 C 6133.191406 1111.488281 6121.949219 1148.328125 6093.648438 1174.148438 C 6055.359375 1209.089844 5986.398438 1223.648438 5894.21875 1223.648438 C 5688 1223.660156 5365.449219 1150.820312 5009.300781 1070.410156 C 4277.75 905.230469 3367.320312 699.660156 2981.378906 1015.980469 C 2850.371094 1123.351562 2786.621094 1287.121094 2791.890625 1502.75 C 2797.539062 1733.660156 2766.191406 1861.101562 2696.070312 1892.371094 C 2684.191406 1897.671875 2671.269531 1900.179688 2657.421875 1900.179688 C 2545.320312 1900.191406 2370.960938 1735.621094 2172.511719 1548.320312 C 1850.898438 1244.78125 1450.648438 867.019531 1099.730469 964.53125 C 987.152344 995.808594 884.75 1075.699219 795.367188 1201.96875 C 696.660156 1341.421875 610.261719 1542.339844 538.570312 1799.160156 C 395.089844 2313.160156 205.238281 2604.148438 -41.835938 2688.75 C -92.152344 2705.980469 -145.148438 2714.628906 -201.152344 2714.628906 "/>
<path fill-rule="nonzero" fill="rgb(49.415588%, 83.227539%, 86.372375%)" fill-opacity="1" d="M -250.265625 2724.28125 C -361.503906 2724.289062 -484.242188 2692.320312 -621.3125 2628.011719 C -807.40625 2540.710938 -995.78125 2406.570312 -1177.949219 2276.851562 C -1484.21875 2058.75 -1773.519531 1852.761719 -1994.109375 1914.828125 C -2099.839844 1944.578125 -2182.761719 2032.890625 -2247.609375 2184.820312 L -2251.050781 2183.351562 C -2185.730469 2030.308594 -2102.019531 1941.289062 -1995.128906 1911.21875 C -1772.800781 1848.648438 -1482.800781 2055.160156 -1175.769531 2273.789062 C -993.738281 2403.417969 -805.507812 2537.460938 -619.71875 2624.621094 C -409.640625 2723.171875 -233.441406 2745.5 -81.085938 2692.871094 C 167.703125 2606.941406 360.425781 2321.828125 508.082031 1821.261719 C 582.261719 1569.789062 671.078125 1372.539062 772.066406 1234.988281 C 863.851562 1109.980469 968.730469 1030.21875 1083.789062 997.941406 C 1445.050781 896.589844 1853.53125 1267.210938 2181.761719 1565.019531 C 2408.019531 1770.308594 2603.429688 1947.601562 2711.261719 1898.53125 C 2780.328125 1867.101562 2811.71875 1743.261719 2807.230469 1519.941406 C 2803.039062 1311.929688 2866.339844 1152.371094 2995.390625 1045.691406 C 3169.699219 901.578125 3464.851562 847.800781 3897.640625 881.261719 C 4273.539062 910.320312 4699.449219 1000.789062 5075.230469 1080.601562 C 5435.261719 1157.078125 5761.789062 1226.421875 5971.460938 1226.429688 C 6068.449219 1226.441406 6140.398438 1211.601562 6179.171875 1175.78125 C 6206.019531 1150.96875 6216.25 1117.449219 6210.449219 1073.320312 L 6214.179688 1072.828125 C 6220.050781 1117.628906 6209.128906 1153.191406 6181.710938 1178.53125 C 6057.710938 1293.128906 5602.058594 1196.328125 5074.449219 1084.269531 C 4323.050781 924.671875 3387.921875 726.039062 2997.78125 1048.578125 C 2869.660156 1154.5 2806.808594 1313.058594 2810.980469 1519.859375 C 2815.511719 1744.839844 2783.398438 1869.828125 2712.808594 1901.941406 C 2699.640625 1907.941406 2685.351562 1910.789062 2670.019531 1910.789062 C 2557.261719 1910.800781 2387.519531 1756.78125 2179.238281 1567.800781 C 1851.691406 1270.609375 1444.03125 900.78125 1084.808594 1001.550781 C 970.570312 1033.601562 866.367188 1112.890625 775.089844 1237.210938 C 674.359375 1374.421875 585.734375 1571.269531 511.679688 1822.328125 C 363.652344 2324.140625 170.160156 2610.058594 -79.859375 2696.421875 C -133.589844 2714.980469 -190.265625 2724.28125 -250.265625 2724.28125 "/>
<path fill-rule="nonzero" fill="rgb(76.254272%, 82.611084%, 93.716431%)" fill-opacity="1" d="M -300.59375 2734.019531 C -412.453125 2734.019531 -535.527344 2703.679688 -672.519531 2642.71875 C -862.726562 2558.070312 -1055.070312 2426.800781 -1241.078125 2299.851562 C -1553.148438 2086.871094 -1847.910156 1885.660156 -2073.519531 1949.429688 C -2180.589844 1979.679688 -2264.980469 2066.578125 -2331.511719 2215.078125 L -2334.929688 2213.550781 C -2267.921875 2063.96875 -2182.75 1976.398438 -2074.539062 1945.820312 C -1847.238281 1881.589844 -1551.789062 2083.261719 -1238.96875 2296.75 C -1053.089844 2423.609375 -860.890625 2554.789062 -670.992188 2639.289062 C -456.242188 2734.871094 -275.914062 2754.878906 -119.699219 2700.5 C 132.035156 2612.859375 328.371094 2332.71875 480.523438 1844.078125 C 557.066406 1598.269531 648.109375 1405.019531 751.117188 1269.671875 C 844.796875 1146.601562 951.464844 1067.441406 1068.160156 1034.398438 C 1437.921875 929.679688 1854.070312 1292.519531 2188.449219 1584.039062 C 2419.128906 1785.171875 2618.398438 1958.851562 2728.359375 1907.789062 C 2797.878906 1875.511719 2830.019531 1754.089844 2826.609375 1536.609375 C 2823.480469 1337.171875 2885.851562 1182.75 3011.96875 1077.628906 C 3407.589844 747.921875 4369.019531 939.738281 5141.550781 1093.859375 C 5505.210938 1166.410156 5835.46875 1232.289062 6049.519531 1232.300781 C 6152.808594 1232.308594 6229.011719 1216.96875 6268.898438 1179.640625 C 6294.871094 1155.339844 6304.808594 1123.039062 6299.269531 1080.890625 L 6302.988281 1080.410156 C 6308.621094 1123.230469 6298.011719 1157.539062 6271.46875 1182.378906 C 6147.5 1298.378906 5680.988281 1205.308594 5140.808594 1097.539062 C 4369.070312 943.570312 3408.601562 751.960938 3014.371094 1080.511719 C 2889.160156 1184.871094 2827.25 1338.300781 2830.359375 1536.550781 C 2833.789062 1755.671875 2800.949219 1878.21875 2729.941406 1911.191406 C 2617.71875 1963.289062 2427.199219 1797.171875 2185.980469 1586.871094 C 1852.28125 1295.929688 1436.960938 933.851562 1069.179688 1038 C 953.28125 1070.820312 847.277344 1149.53125 754.105469 1271.941406 C 651.359375 1406.929688 560.515625 1599.808594 484.105469 1845.199219 C 331.574219 2335.050781 134.46875 2615.980469 -118.46875 2704.039062 C -175.796875 2724 -236.351562 2734.011719 -300.59375 2734.019531 "/>
<path fill-rule="nonzero" fill="rgb(69.766235%, 77.832031%, 91.845703%)" fill-opacity="1" d="M -352.171875 2743.800781 C -464.570312 2743.800781 -587.890625 2715.078125 -724.707031 2657.378906 C -919.164062 2575.371094 -1115.621094 2446.929688 -1305.601562 2322.71875 C -1623.628906 2114.789062 -1924.019531 1918.378906 -2154.710938 1983.789062 C -2263.140625 2014.539062 -2348.988281 2100.058594 -2417.171875 2245.21875 L -2420.570312 2243.628906 C -2351.898438 2097.421875 -2265.269531 2011.25 -2155.730469 1980.191406 C -1923.441406 1914.300781 -1622.320312 2111.160156 -1303.550781 2319.578125 C -1113.699219 2443.699219 -917.398438 2572.039062 -723.25 2653.921875 C -503.671875 2746.53125 -319.0625 2764.238281 -158.894531 2708.078125 C 95.777344 2618.78125 295.707031 2343.53125 452.316406 1866.589844 C 531.214844 1626.339844 624.476562 1437 729.507812 1303.820312 C 825.074219 1182.648438 933.53125 1104.078125 1051.871094 1070.289062 C 1430.371094 962.179688 1854.460938 1317.328125 2195.199219 1602.679688 C 2430.480469 1799.710938 2633.628906 1969.871094 2745.828125 1916.730469 C 2815.738281 1883.621094 2848.589844 1764.609375 2846.261719 1552.890625 C 2844.148438 1361.738281 2905.550781 1212.371094 3028.738281 1108.929688 C 3428.320312 773.421875 4415.699219 958.121094 5209.078125 1106.53125 C 5576.199219 1175.199219 5910.070312 1237.648438 6128.550781 1237.660156 C 6238.601562 1237.660156 6319.320312 1221.828125 6360.351562 1182.96875 C 6385.460938 1159.199219 6395.089844 1128.078125 6389.808594 1087.851562 L 6393.53125 1087.359375 C 6398.898438 1128.289062 6388.609375 1161.378906 6362.929688 1185.691406 C 6239.050781 1303.011719 5761.429688 1213.671875 5208.390625 1110.210938 C 4415.789062 961.949219 3429.371094 777.429688 3031.148438 1111.800781 C 2908.859375 1214.480469 2847.910156 1362.871094 2850.011719 1552.851562 C 2852.359375 1766.179688 2818.808594 1886.308594 2747.441406 1920.121094 C 2732.371094 1927.261719 2715.898438 1930.628906 2698.109375 1930.628906 C 2580.96875 1930.640625 2406.371094 1784.421875 2192.789062 1605.558594 C 1852.730469 1320.769531 1429.511719 966.351562 1052.890625 1073.898438 C 803.167969 1145.210938 607.886719 1404.890625 455.882812 1867.761719 C 298.882812 2345.890625 98.191406 2621.910156 -157.652344 2711.621094 C -218.78125 2733.050781 -283.441406 2743.800781 -352.171875 2743.800781 "/>
<path fill-rule="nonzero" fill="rgb(55.752563%, 73.292542%, 82.644653%)" fill-opacity="1" d="M -405.03125 2753.691406 C -517.882812 2753.699219 -641.359375 2726.539062 -777.894531 2672.03125 C -976.734375 2592.640625 -1177.421875 2467.011719 -1371.488281 2345.511719 C -1695.660156 2142.570312 -2001.851562 1950.890625 -2237.769531 2017.949219 C -2347.558594 2049.171875 -2434.878906 2133.320312 -2504.738281 2275.210938 L -2508.101562 2273.550781 C -2437.75 2130.648438 -2349.660156 2045.871094 -2238.789062 2014.339844 C -2001.269531 1946.828125 -1694.398438 2138.929688 -1369.5 2342.328125 C -1175.570312 2463.738281 -975.03125 2589.28125 -776.503906 2668.550781 C -551.945312 2758.199219 -362.945312 2773.609375 -198.695312 2715.671875 C 58.898438 2624.78125 262.398438 2354.339844 423.441406 1888.871094 C 504.679688 1654.058594 600.148438 1468.558594 707.191406 1337.519531 C 804.648438 1218.210938 914.894531 1140.210938 1034.859375 1105.679688 C 1422.390625 994.121094 1854.640625 1341.671875 2201.960938 1620.929688 C 2442 1813.929688 2649.308594 1980.609375 2763.699219 1925.359375 C 2833.96875 1891.429688 2867.5 1774.78125 2866.230469 1568.75 C 2865.089844 1385.621094 2925.488281 1241.21875 3045.730469 1139.550781 C 3449.179688 798.460938 4463.179688 975.980469 5277.949219 1118.621094 C 5648.328125 1183.460938 5985.660156 1242.511719 6208.589844 1242.519531 C 6325.839844 1242.519531 6411.410156 1226.199219 6453.570312 1185.789062 C 6477.808594 1162.570312 6487.140625 1132.621094 6482.101562 1094.238281 L 6485.820312 1093.75 C 6490.949219 1132.851562 6480.980469 1164.730469 6456.171875 1188.5 C 6332.449219 1307.039062 5843.488281 1221.441406 5277.300781 1122.308594 C 4463.308594 979.800781 3450.269531 802.441406 3048.148438 1142.421875 C 2928.800781 1243.328125 2868.851562 1386.761719 2869.980469 1568.730469 C 2871.261719 1776.351562 2837.03125 1894.109375 2765.328125 1928.738281 C 2648.839844 1985.011719 2450.570312 1825.640625 2199.609375 1623.851562 C 1852.96875 1345.140625 1421.558594 998.28125 1035.898438 1109.28125 C 782.730469 1182.148438 583.554688 1437.558594 426.984375 1890.089844 C 265.542969 2356.710938 61.292969 2627.921875 -197.445312 2719.199219 C -262.570312 2742.179688 -331.554688 2753.691406 -405.03125 2753.691406 "/>
</svg>
